<svg width="24" height="24" viewBox="0 0 24 24" fill="none" xmlns="http://www.w3.org/2000/svg">
<path d="M7.89825 2.62498C7.83641 2.64112 7.77973 2.67281 7.73357 2.71702C7.68742 2.76123 7.65334 2.81651 7.63455 2.87759C7.61577 2.93868 7.61291 3.00356 7.62624 3.06606C7.63958 3.12857 7.66867 3.18663 7.71075 3.23473L8.8125 4.82848C8.17193 5.31915 7.65276 5.95055 7.29513 6.67388C6.9375 7.3972 6.75098 8.19307 6.75 8.99998V16.5C6.75 17.0272 7.08075 17.4022 7.5 17.6722V19.875C7.5 20.9002 8.34975 21.75 9.375 21.75C10.4002 21.75 11.25 20.9002 11.25 19.875V18H12.75V19.875C12.75 20.9002 13.5997 21.75 14.625 21.75C15.6503 21.75 16.5 20.9002 16.5 19.875V17.6715C16.9193 17.4022 17.25 17.0272 17.25 16.5V8.99998C17.2491 8.19295 17.0627 7.39693 16.705 6.67346C16.3474 5.95 15.8282 5.31848 15.1875 4.82773L16.2892 3.23398C16.3339 3.17796 16.3616 3.11036 16.3691 3.03914C16.3766 2.96791 16.3635 2.89603 16.3315 2.83195C16.2995 2.76788 16.2499 2.71428 16.1885 2.67748C16.127 2.64068 16.0563 2.6222 15.9847 2.62423C15.9613 2.62153 15.9376 2.62178 15.9142 2.62498C15.8643 2.63836 15.8177 2.66192 15.7773 2.69419C15.7369 2.72646 15.7036 2.76673 15.6795 2.81248L14.5545 4.40623C13.773 3.97305 12.8936 3.74713 12 3.74998C11.1064 3.74713 10.227 3.97305 9.4455 4.40623L8.3205 2.81248C8.28953 2.75821 8.24541 2.71259 8.1922 2.67983C8.13899 2.64707 8.0784 2.6282 8.016 2.62498C7.99259 2.62203 7.96891 2.62203 7.9455 2.62498H7.89825ZM12 5.24998C12.8652 5.24891 13.7042 5.547 14.3748 6.09374C15.0454 6.64049 15.5063 7.40226 15.6795 8.24998H8.3205C8.66925 6.53623 10.1805 5.24998 12 5.24998ZM10.5 5.99998C10.0875 5.99998 9.75 6.33748 9.75 6.74998C9.75 7.16248 10.0875 7.49998 10.5 7.49998C10.9125 7.49998 11.25 7.16248 11.25 6.74998C11.25 6.33748 10.9125 5.99998 10.5 5.99998ZM13.5 5.99998C13.0875 5.99998 12.75 6.33748 12.75 6.74998C12.75 7.16248 13.0875 7.49998 13.5 7.49998C13.9125 7.49998 14.25 7.16248 14.25 6.74998C14.25 6.33748 13.9125 5.99998 13.5 5.99998ZM4.5 8.24998V15.75H6V8.24998H4.5ZM18 8.24998V15.75H19.5V8.24998H18ZM8.25 9.74998H15.75V16.5H15V19.875C15.001 19.9245 14.992 19.9737 14.9735 20.0197C14.9551 20.0656 14.9275 20.1074 14.8924 20.1424C14.8574 20.1774 14.8157 20.205 14.7697 20.2235C14.7237 20.242 14.6745 20.251 14.625 20.25C14.5754 20.2511 14.5262 20.2422 14.4802 20.2237C14.4342 20.2053 14.3924 20.1777 14.3573 20.1427C14.3223 20.1076 14.2947 20.0658 14.2762 20.0198C14.2578 19.9738 14.2489 19.9245 14.25 19.875V16.5H9.75V19.875C9.75102 19.9245 9.74202 19.9737 9.72354 20.0197C9.70505 20.0656 9.67747 20.1074 9.64244 20.1424C9.60741 20.1774 9.56567 20.205 9.51971 20.2235C9.47375 20.242 9.42453 20.251 9.375 20.25C9.32545 20.2511 9.27618 20.2422 9.23017 20.2237C9.18416 20.2053 9.14237 20.1777 9.10732 20.1427C9.07227 20.1076 9.04469 20.0658 9.02625 20.0198C9.0078 19.9738 8.99887 19.9245 9 19.875V16.5H8.25V9.74998Z" fill="#212121"/>
<path d="M12.1023 21.1103L14.2358 22.0547L14.1668 22.25H14.6771L15.0922 22.4337V22.25H15.7785H16.1321L16.2499 21.9166L16.6546 20.7718V20.8453V21.6656V22.4337L17.357 22.1228L19.6445 21.1103L19.9421 20.9786V20.6531V19.9265V19.6011L19.6445 19.4693L17.4572 18.5012L17.5825 18.1469H16.8754H16.6567L16.6546 18.1459V18.1469H15.9707H15.6171L15.4993 18.4802L15.0922 19.632V18.914V18.1459L14.3898 18.4568L12.1023 19.4693L11.8047 19.6011V19.9265V20.6531V20.9786L12.1023 21.1103ZM14.7831 20.3832L14.5562 20.2894L14.7818 20.197L14.9112 20.144L14.8211 20.3989L14.7831 20.3832ZM16.7626 20.4663L16.8713 20.1586L16.965 20.197L17.1906 20.2894L16.9637 20.3832L16.7626 20.4663Z" fill="#212121" stroke="#F6F4F2"/>
</svg>
