<svg width="24" height="24" viewBox="0 0 24 24" fill="none" xmlns="http://www.w3.org/2000/svg">
<g clip-path="url(#clip0_945_3845)">
<path d="M21 12.75V16.5H3V4.5H10.5V3H3C2.60218 3 2.22064 3.15804 1.93934 3.43934C1.65804 3.72064 1.5 4.10218 1.5 4.5V16.5C1.5 16.8978 1.65804 17.2794 1.93934 17.5607C2.22064 17.842 2.60218 18 3 18H9V21H6V22.5H18V21H15V18H21C21.3978 18 21.7794 17.842 22.0607 17.5607C22.342 17.2794 22.5 16.8978 22.5 16.5V12.75H21ZM13.5 21H10.5V18H13.5V21Z" fill="#212121"/>
<path d="M22.5 7.5V6H20.9242C20.8275 5.53052 20.6411 5.08411 20.3752 4.68525L21.4928 3.56775L20.4323 2.50725L19.3148 3.62475C18.9159 3.35888 18.4695 3.17248 18 3.07575V1.5H16.5V3.07575C16.0305 3.17248 15.5841 3.35888 15.1852 3.62475L14.0677 2.50725L13.0073 3.56775L14.1248 4.68525C13.8589 5.08411 13.6725 5.53052 13.5757 6H12V7.5H13.5757C13.6725 7.96948 13.8589 8.41589 14.1248 8.81475L13.0073 9.93225L14.0677 10.9928L15.1852 9.87525C15.5841 10.1411 16.0305 10.3275 16.5 10.4242V12H18V10.4242C18.4695 10.3275 18.9159 10.1411 19.3148 9.87525L20.4323 10.9928L21.4928 9.93225L20.3752 8.81475C20.6411 8.41589 20.8275 7.96948 20.9242 7.5H22.5ZM17.25 9C16.805 9 16.37 8.86804 16 8.62081C15.63 8.37357 15.3416 8.02217 15.1713 7.61104C15.001 7.1999 14.9564 6.7475 15.0432 6.31105C15.13 5.87459 15.3443 5.47368 15.659 5.15901C15.9737 4.84434 16.3746 4.63005 16.811 4.54323C17.2475 4.45642 17.6999 4.50097 18.111 4.67127C18.5222 4.84157 18.8736 5.12996 19.1208 5.49997C19.368 5.86998 19.5 6.30499 19.5 6.75C19.4994 7.34655 19.2622 7.9185 18.8403 8.34033C18.4185 8.76216 17.8466 8.9994 17.25 9Z" fill="#212121"/>
<mask id="path-3-outside-1_945_3845" maskUnits="userSpaceOnUse" x="-0.4375" y="13.625" width="10" height="7" fill="black">
<rect fill="white" x="-0.4375" y="13.625" width="10" height="7"/>
<path d="M8.0625 17.0622C8.06225 17.0094 8.04164 16.9588 8.00516 16.9215C7.96867 16.8841 7.91925 16.863 7.86765 16.8628L6.14648 16.8645V16.6756C6.14667 16.5717 6.12682 16.4688 6.08807 16.3728C6.04931 16.2767 5.99241 16.1895 5.92064 16.116C5.84886 16.0425 5.76361 15.9843 5.66979 15.9446C5.57597 15.905 5.47543 15.8847 5.37392 15.8849L4.50564 15.8849L4.50735 15.8026C4.50259 15.7531 4.48 15.7072 4.44399 15.6738C4.40797 15.6404 4.36111 15.6219 4.3125 15.6219C4.26389 15.6219 4.21703 15.6404 4.18101 15.6738C4.145 15.7072 4.12241 15.7531 4.11765 15.8026L4.11936 15.8849L3.25108 15.8849C3.14957 15.8847 3.04902 15.905 2.95521 15.9446C2.86139 15.9843 2.77614 16.0425 2.70436 16.116C2.63259 16.1895 2.57569 16.2767 2.53693 16.3728C2.49818 16.4688 2.47833 16.5717 2.47852 16.6756L2.47852 16.8645L0.757349 16.8628C0.705748 16.863 0.656332 16.8841 0.619844 16.9215C0.583356 16.9588 0.562748 17.0094 0.5625 17.0622C0.563364 17.1148 0.58417 17.1651 0.620526 17.2023C0.656882 17.2395 0.705942 17.2608 0.75735 17.2617L2.47852 17.2599L2.47852 17.4489C2.4794 17.6583 2.56108 17.8589 2.70577 18.007C2.85047 18.1551 3.04646 18.2387 3.25108 18.2396L4.11936 18.2396L4.11765 18.3218C4.11851 18.3744 4.13932 18.4247 4.17568 18.4619C4.21203 18.4991 4.26109 18.5204 4.3125 18.5213C4.3641 18.521 4.41352 18.4999 4.45001 18.4626C4.48649 18.4252 4.5071 18.3746 4.50735 18.3218L4.50564 18.2396H5.37392C5.47543 18.2398 5.57597 18.2195 5.66979 18.1798C5.76361 18.1401 5.84886 18.0819 5.92064 18.0084C5.99241 17.935 6.04931 17.8477 6.08807 17.7517C6.12682 17.6557 6.14667 17.5528 6.14648 17.4489L6.14648 17.2599L7.86765 17.2617C7.91925 17.2614 7.96867 17.2403 8.00516 17.203C8.04164 17.1656 8.06225 17.115 8.0625 17.0622ZM3.25108 17.8442C3.14887 17.8435 3.05105 17.8016 2.97878 17.7276C2.9065 17.6536 2.86556 17.5535 2.8648 17.4489L2.8648 16.6756C2.86454 16.6236 2.87436 16.5721 2.89368 16.524C2.913 16.4759 2.94144 16.4322 2.97737 16.3954C3.01329 16.3587 3.05597 16.3296 3.10295 16.3098C3.14994 16.29 3.20028 16.28 3.25108 16.2802L4.11936 16.2802V17.8442H3.25108ZM4.50564 17.8442V16.2802H5.37392C5.42472 16.28 5.47506 16.29 5.52205 16.3098C5.56903 16.3296 5.61171 16.3587 5.64763 16.3954C5.68356 16.4322 5.712 16.4759 5.73132 16.524C5.75064 16.5721 5.76046 16.6236 5.7602 16.6756V17.4489C5.75944 17.5535 5.7185 17.6536 5.64622 17.7276C5.57395 17.8016 5.47613 17.8435 5.37392 17.8442H4.50564ZM5.49356 19.4782C5.4573 19.4974 5.416 19.5041 5.3757 19.4975C5.33541 19.4909 5.29824 19.4713 5.26966 19.4415C5.2549 19.4268 5.24275 19.4097 5.23376 19.3907L4.96029 18.8309C4.94884 18.8077 4.94197 18.7824 4.94007 18.7565C4.93817 18.7306 4.94128 18.7045 4.94921 18.6798C4.95715 18.6551 4.96976 18.6323 4.98632 18.6126C5.00289 18.5929 5.02308 18.5767 5.04575 18.565C5.06842 18.5533 5.09312 18.5462 5.11845 18.5443C5.14377 18.5424 5.16922 18.5455 5.19335 18.5537C5.21747 18.5618 5.2398 18.5747 5.25905 18.5916C5.2783 18.6086 5.2941 18.6293 5.30555 18.6525L5.57902 19.2123C5.59047 19.2355 5.59734 19.2608 5.59924 19.2867C5.60115 19.3126 5.59804 19.3387 5.5901 19.3634C5.58217 19.3881 5.56956 19.4109 5.55299 19.4306C5.53643 19.4503 5.51623 19.4665 5.49356 19.4782ZM3.13144 14.6463C3.15411 14.6345 3.17881 14.6275 3.20414 14.6256C3.22946 14.6236 3.25491 14.6268 3.27904 14.6349C3.30316 14.643 3.32549 14.6559 3.34474 14.6729C3.36399 14.6899 3.37979 14.7105 3.39124 14.7337L3.66471 15.2935C3.68545 15.3356 3.69088 15.3838 3.68003 15.4295C3.66917 15.4753 3.64275 15.5155 3.60549 15.5431C3.56824 15.5707 3.52259 15.5838 3.47674 15.5801C3.4309 15.5764 3.38786 15.556 3.35534 15.5227C3.34058 15.5081 3.32844 15.4909 3.31945 15.472L3.04598 14.9122C3.03453 14.889 3.02766 14.8637 3.02576 14.8378C3.02385 14.8118 3.02696 14.7858 3.0349 14.7611C3.04283 14.7364 3.05544 14.7135 3.07201 14.6938C3.08857 14.6741 3.10877 14.658 3.13144 14.6463ZM5.23376 14.7337C5.24521 14.7105 5.26101 14.6899 5.28026 14.6729C5.29951 14.6559 5.32184 14.643 5.34596 14.6349C5.37009 14.6268 5.39554 14.6236 5.42086 14.6256C5.44619 14.6275 5.47089 14.6345 5.49356 14.6463C5.53935 14.6699 5.57407 14.7112 5.5901 14.7611C5.60612 14.811 5.60214 14.8653 5.57902 14.9122L5.30555 15.472C5.2941 15.4952 5.2783 15.5159 5.25905 15.5328C5.2398 15.5498 5.21748 15.5627 5.19335 15.5708C5.16923 15.5789 5.14377 15.5821 5.11845 15.5802C5.09312 15.5782 5.06842 15.5712 5.04575 15.5595C5.02726 15.5503 5.01049 15.5378 4.99618 15.5227C4.96706 15.4935 4.94786 15.4554 4.9414 15.4142C4.93494 15.3729 4.94156 15.3307 4.96029 15.2935L5.23376 14.7337ZM3.39124 19.3907C3.37979 19.4139 3.36399 19.4346 3.34474 19.4516C3.32549 19.4685 3.30316 19.4814 3.27904 19.4895C3.25491 19.4977 3.22946 19.5008 3.20414 19.4989C3.17881 19.497 3.15411 19.4899 3.13144 19.4782C3.11295 19.469 3.09618 19.4566 3.08187 19.4415C3.05275 19.4122 3.03355 19.3742 3.02709 19.3329C3.02063 19.2917 3.02725 19.2494 3.04598 19.2123L3.31945 18.6525C3.3309 18.6293 3.3467 18.6086 3.36595 18.5916C3.3852 18.5747 3.40753 18.5618 3.43165 18.5537C3.45578 18.5455 3.48123 18.5424 3.50655 18.5443C3.53188 18.5462 3.55658 18.5533 3.57925 18.565C3.60192 18.5767 3.62211 18.5929 3.63868 18.6126C3.65524 18.6323 3.66785 18.6551 3.67579 18.6798C3.68372 18.7045 3.68683 18.7306 3.68493 18.7565C3.68303 18.7824 3.67616 18.8077 3.66471 18.8309L3.39124 19.3907Z"/>
</mask>
<path d="M8.0625 17.0622C8.06225 17.0094 8.04164 16.9588 8.00516 16.9215C7.96867 16.8841 7.91925 16.863 7.86765 16.8628L6.14648 16.8645V16.6756C6.14667 16.5717 6.12682 16.4688 6.08807 16.3728C6.04931 16.2767 5.99241 16.1895 5.92064 16.116C5.84886 16.0425 5.76361 15.9843 5.66979 15.9446C5.57597 15.905 5.47543 15.8847 5.37392 15.8849L4.50564 15.8849L4.50735 15.8026C4.50259 15.7531 4.48 15.7072 4.44399 15.6738C4.40797 15.6404 4.36111 15.6219 4.3125 15.6219C4.26389 15.6219 4.21703 15.6404 4.18101 15.6738C4.145 15.7072 4.12241 15.7531 4.11765 15.8026L4.11936 15.8849L3.25108 15.8849C3.14957 15.8847 3.04902 15.905 2.95521 15.9446C2.86139 15.9843 2.77614 16.0425 2.70436 16.116C2.63259 16.1895 2.57569 16.2767 2.53693 16.3728C2.49818 16.4688 2.47833 16.5717 2.47852 16.6756L2.47852 16.8645L0.757349 16.8628C0.705748 16.863 0.656332 16.8841 0.619844 16.9215C0.583356 16.9588 0.562748 17.0094 0.5625 17.0622C0.563364 17.1148 0.58417 17.1651 0.620526 17.2023C0.656882 17.2395 0.705942 17.2608 0.75735 17.2617L2.47852 17.2599L2.47852 17.4489C2.4794 17.6583 2.56108 17.8589 2.70577 18.007C2.85047 18.1551 3.04646 18.2387 3.25108 18.2396L4.11936 18.2396L4.11765 18.3218C4.11851 18.3744 4.13932 18.4247 4.17568 18.4619C4.21203 18.4991 4.26109 18.5204 4.3125 18.5213C4.3641 18.521 4.41352 18.4999 4.45001 18.4626C4.48649 18.4252 4.5071 18.3746 4.50735 18.3218L4.50564 18.2396H5.37392C5.47543 18.2398 5.57597 18.2195 5.66979 18.1798C5.76361 18.1401 5.84886 18.0819 5.92064 18.0084C5.99241 17.935 6.04931 17.8477 6.08807 17.7517C6.12682 17.6557 6.14667 17.5528 6.14648 17.4489L6.14648 17.2599L7.86765 17.2617C7.91925 17.2614 7.96867 17.2403 8.00516 17.203C8.04164 17.1656 8.06225 17.115 8.0625 17.0622ZM3.25108 17.8442C3.14887 17.8435 3.05105 17.8016 2.97878 17.7276C2.9065 17.6536 2.86556 17.5535 2.8648 17.4489L2.8648 16.6756C2.86454 16.6236 2.87436 16.5721 2.89368 16.524C2.913 16.4759 2.94144 16.4322 2.97737 16.3954C3.01329 16.3587 3.05597 16.3296 3.10295 16.3098C3.14994 16.29 3.20028 16.28 3.25108 16.2802L4.11936 16.2802V17.8442H3.25108ZM4.50564 17.8442V16.2802H5.37392C5.42472 16.28 5.47506 16.29 5.52205 16.3098C5.56903 16.3296 5.61171 16.3587 5.64763 16.3954C5.68356 16.4322 5.712 16.4759 5.73132 16.524C5.75064 16.5721 5.76046 16.6236 5.7602 16.6756V17.4489C5.75944 17.5535 5.7185 17.6536 5.64622 17.7276C5.57395 17.8016 5.47613 17.8435 5.37392 17.8442H4.50564ZM5.49356 19.4782C5.4573 19.4974 5.416 19.5041 5.3757 19.4975C5.33541 19.4909 5.29824 19.4713 5.26966 19.4415C5.2549 19.4268 5.24275 19.4097 5.23376 19.3907L4.96029 18.8309C4.94884 18.8077 4.94197 18.7824 4.94007 18.7565C4.93817 18.7306 4.94128 18.7045 4.94921 18.6798C4.95715 18.6551 4.96976 18.6323 4.98632 18.6126C5.00289 18.5929 5.02308 18.5767 5.04575 18.565C5.06842 18.5533 5.09312 18.5462 5.11845 18.5443C5.14377 18.5424 5.16922 18.5455 5.19335 18.5537C5.21747 18.5618 5.2398 18.5747 5.25905 18.5916C5.2783 18.6086 5.2941 18.6293 5.30555 18.6525L5.57902 19.2123C5.59047 19.2355 5.59734 19.2608 5.59924 19.2867C5.60115 19.3126 5.59804 19.3387 5.5901 19.3634C5.58217 19.3881 5.56956 19.4109 5.55299 19.4306C5.53643 19.4503 5.51623 19.4665 5.49356 19.4782ZM3.13144 14.6463C3.15411 14.6345 3.17881 14.6275 3.20414 14.6256C3.22946 14.6236 3.25491 14.6268 3.27904 14.6349C3.30316 14.643 3.32549 14.6559 3.34474 14.6729C3.36399 14.6899 3.37979 14.7105 3.39124 14.7337L3.66471 15.2935C3.68545 15.3356 3.69088 15.3838 3.68003 15.4295C3.66917 15.4753 3.64275 15.5155 3.60549 15.5431C3.56824 15.5707 3.52259 15.5838 3.47674 15.5801C3.4309 15.5764 3.38786 15.556 3.35534 15.5227C3.34058 15.5081 3.32844 15.4909 3.31945 15.472L3.04598 14.9122C3.03453 14.889 3.02766 14.8637 3.02576 14.8378C3.02385 14.8118 3.02696 14.7858 3.0349 14.7611C3.04283 14.7364 3.05544 14.7135 3.07201 14.6938C3.08857 14.6741 3.10877 14.658 3.13144 14.6463ZM5.23376 14.7337C5.24521 14.7105 5.26101 14.6899 5.28026 14.6729C5.29951 14.6559 5.32184 14.643 5.34596 14.6349C5.37009 14.6268 5.39554 14.6236 5.42086 14.6256C5.44619 14.6275 5.47089 14.6345 5.49356 14.6463C5.53935 14.6699 5.57407 14.7112 5.5901 14.7611C5.60612 14.811 5.60214 14.8653 5.57902 14.9122L5.30555 15.472C5.2941 15.4952 5.2783 15.5159 5.25905 15.5328C5.2398 15.5498 5.21748 15.5627 5.19335 15.5708C5.16923 15.5789 5.14377 15.5821 5.11845 15.5802C5.09312 15.5782 5.06842 15.5712 5.04575 15.5595C5.02726 15.5503 5.01049 15.5378 4.99618 15.5227C4.96706 15.4935 4.94786 15.4554 4.9414 15.4142C4.93494 15.3729 4.94156 15.3307 4.96029 15.2935L5.23376 14.7337ZM3.39124 19.3907C3.37979 19.4139 3.36399 19.4346 3.34474 19.4516C3.32549 19.4685 3.30316 19.4814 3.27904 19.4895C3.25491 19.4977 3.22946 19.5008 3.20414 19.4989C3.17881 19.497 3.15411 19.4899 3.13144 19.4782C3.11295 19.469 3.09618 19.4566 3.08187 19.4415C3.05275 19.4122 3.03355 19.3742 3.02709 19.3329C3.02063 19.2917 3.02725 19.2494 3.04598 19.2123L3.31945 18.6525C3.3309 18.6293 3.3467 18.6086 3.36595 18.5916C3.3852 18.5747 3.40753 18.5618 3.43165 18.5537C3.45578 18.5455 3.48123 18.5424 3.50655 18.5443C3.53188 18.5462 3.55658 18.5533 3.57925 18.565C3.60192 18.5767 3.62211 18.5929 3.63868 18.6126C3.65524 18.6323 3.66785 18.6551 3.67579 18.6798C3.68372 18.7045 3.68683 18.7306 3.68493 18.7565C3.68303 18.7824 3.67616 18.8077 3.66471 18.8309L3.39124 19.3907Z" fill="#212121"/>
<path d="M8.0625 17.0622L9.06253 17.0669L9.06249 17.0575L8.0625 17.0622ZM7.86765 16.8628L7.87256 15.8628L7.86663 15.8628L7.86765 16.8628ZM6.14648 16.8645H5.14648V17.8656L6.1475 17.8645L6.14648 16.8645ZM6.14648 16.6756L5.14648 16.6737V16.6756H6.14648ZM5.37392 15.8849L5.37392 16.8849L5.37588 16.8849L5.37392 15.8849ZM4.50564 15.8849L3.50586 15.8641L3.48464 16.8849L4.50564 16.8849L4.50564 15.8849ZM4.50735 15.8026L5.50713 15.8234L5.50835 15.765L5.50275 15.7069L4.50735 15.8026ZM4.11765 15.8026L3.12225 15.7069L3.11665 15.765L3.11787 15.8234L4.11765 15.8026ZM4.11936 15.8849L4.11936 16.8849L5.14036 16.8849L5.11914 15.8641L4.11936 15.8849ZM3.25108 15.8849L3.24912 16.8849H3.25108L3.25108 15.8849ZM2.47852 16.6756L3.47852 16.6756L3.47852 16.6737L2.47852 16.6756ZM2.47852 16.8645L2.4775 17.8645L3.47852 17.8656L3.47852 16.8645L2.47852 16.8645ZM0.757349 16.8628L0.758366 15.8628L0.752435 15.8628L0.757349 16.8628ZM0.5625 17.0622L-0.437489 17.0575L-0.437539 17.0681L-0.437365 17.0786L0.5625 17.0622ZM0.75735 17.2617L0.740146 18.2615L0.749255 18.2617L0.758366 18.2617L0.75735 17.2617ZM2.47852 17.2599L3.47852 17.2599L3.47852 16.2589L2.4775 16.2599L2.47852 17.2599ZM2.47852 17.4489L1.47851 17.4489L1.47853 17.4531L2.47852 17.4489ZM3.25108 18.2396L3.24667 19.2396H3.25108L3.25108 18.2396ZM4.11936 18.2396L5.11914 18.2604L5.14036 17.2396L4.11936 17.2396L4.11936 18.2396ZM4.11765 18.3218L3.11787 18.301L3.11748 18.3196L3.11779 18.3382L4.11765 18.3218ZM4.3125 18.5213L4.2953 19.5211L4.30635 19.5213L4.31741 19.5212L4.3125 18.5213ZM4.50735 18.3218L5.50734 18.3265L5.5074 18.3138L5.50713 18.301L4.50735 18.3218ZM4.50564 18.2396V17.2396H3.48463L3.50586 18.2604L4.50564 18.2396ZM5.37392 18.2396L5.37588 17.2396H5.37392V18.2396ZM6.14648 17.4489L5.14648 17.4489L5.14648 17.4507L6.14648 17.4489ZM6.14648 17.2599L6.1475 16.2599L5.14648 16.2589L5.14648 17.2599L6.14648 17.2599ZM7.86765 17.2617L7.86663 18.2617L7.87256 18.2617L7.86765 17.2617ZM3.25108 17.8442L3.24352 18.8442H3.25108V17.8442ZM2.8648 17.4489L1.86478 17.4489L1.86483 17.4561L2.8648 17.4489ZM2.8648 16.6756L3.86481 16.6756L3.86479 16.6706L2.8648 16.6756ZM3.25108 16.2802L3.24588 17.2802H3.25108V16.2802ZM4.11936 16.2802H5.11936V15.2802L4.11936 15.2802V16.2802ZM4.11936 17.8442V18.8442H5.11936V17.8442H4.11936ZM4.50564 17.8442H3.50564V18.8442H4.50564V17.8442ZM4.50564 16.2802V15.2802H3.50564V16.2802H4.50564ZM5.37392 16.2802V17.2802L5.37912 17.2802L5.37392 16.2802ZM5.7602 16.6756L4.7602 16.6706V16.6756H5.7602ZM5.7602 17.4489L6.7602 17.4561V17.4489H5.7602ZM5.37392 17.8442V18.8443L5.38148 18.8442L5.37392 17.8442ZM5.49356 19.4782L5.03447 18.5898L5.02619 18.5941L5.49356 19.4782ZM5.26966 19.4415L5.99139 18.7493L5.98277 18.7403L5.97392 18.7315L5.26966 19.4415ZM5.23376 19.3907L6.13713 18.9617L6.13228 18.9518L5.23376 19.3907ZM4.96029 18.8309L5.85882 18.392L5.85709 18.3885L4.96029 18.8309ZM4.98632 18.6126L4.22085 17.9691L4.98632 18.6126ZM5.30555 18.6525L6.20408 18.2135L6.20235 18.21L5.30555 18.6525ZM5.57902 19.2123L4.68049 19.6512L4.68225 19.6548L5.57902 19.2123ZM3.13144 14.6463L3.59051 15.5347L3.59065 15.5346L3.13144 14.6463ZM3.39124 14.7337L4.28977 14.2948L4.28808 14.2914L3.39124 14.7337ZM3.66471 15.2935L2.76618 15.7325L2.76801 15.7362L3.66471 15.2935ZM3.35534 15.5227L4.0708 14.8241L4.06525 14.8184L4.05961 14.8128L3.35534 15.5227ZM3.31945 15.472L4.22282 15.043L4.21797 15.0331L3.31945 15.472ZM3.04598 14.9122L3.94451 14.4732L3.94275 14.4697L3.04598 14.9122ZM5.23376 14.7337L4.33695 14.2913L4.33524 14.2948L5.23376 14.7337ZM5.49356 14.6463L5.9527 13.7579L5.49356 14.6463ZM5.57902 14.9122L4.68221 14.4697L4.6805 14.4732L5.57902 14.9122ZM5.30555 15.472L6.20239 15.9144L6.20407 15.9109L5.30555 15.472ZM5.04575 15.5595L5.50496 14.6711L5.4981 14.6676L5.49119 14.6641L5.04575 15.5595ZM4.99618 15.5227L5.7223 14.8352L5.71374 14.8261L5.70495 14.8173L4.99618 15.5227ZM4.96029 15.2935L5.85313 15.7441L5.85881 15.7325L4.96029 15.2935ZM3.39124 19.3907L4.28808 19.8331L4.28976 19.8297L3.39124 19.3907ZM3.13144 19.4782L3.59065 18.5899L3.58379 18.5863L3.57688 18.5829L3.13144 19.4782ZM3.08187 19.4415L3.80799 18.7539L3.79943 18.7449L3.79064 18.736L3.08187 19.4415ZM3.04598 19.2123L3.93882 19.6628L3.9445 19.6512L3.04598 19.2123ZM3.31945 18.6525L2.42264 18.21L2.42093 18.2135L3.31945 18.6525ZM3.63868 18.6126L2.8732 19.2561L3.63868 18.6126ZM3.66471 18.8309L2.7679 18.3885L2.76619 18.392L3.66471 18.8309ZM9.06249 17.0575C9.06104 16.7485 8.94065 16.448 8.72044 16.2227L7.28987 17.6203C7.14264 17.4696 7.06347 17.2703 7.06251 17.0669L9.06249 17.0575ZM8.72044 16.2227C8.49948 15.9965 8.19525 15.8644 7.87256 15.8628L7.86274 17.8628C7.64325 17.8617 7.43786 17.7718 7.28987 17.6203L8.72044 16.2227ZM7.86663 15.8628L6.14546 15.8645L6.1475 17.8645L7.86867 17.8628L7.86663 15.8628ZM7.14648 16.8645V16.6756H5.14648V16.8645H7.14648ZM7.14648 16.6775C7.14691 16.4451 7.10255 16.2145 7.01539 15.9985L5.16074 16.747C5.1511 16.7231 5.14643 16.6983 5.14648 16.6737L7.14648 16.6775ZM7.01539 15.9985C6.92822 15.7825 6.79964 15.5848 6.63592 15.4172L5.20535 16.8148C5.18519 16.7942 5.17041 16.771 5.16074 16.747L7.01539 15.9985ZM6.63592 15.4172C6.47215 15.2496 6.27638 15.1154 6.05923 15.0236L5.28036 16.8657C5.25084 16.8532 5.22557 16.8355 5.20535 16.8148L6.63592 15.4172ZM6.05923 15.0236C5.84202 14.9317 5.60839 14.8844 5.37195 14.8849L5.37588 16.8849C5.34247 16.8849 5.30993 16.8782 5.28036 16.8657L6.05923 15.0236ZM5.37392 14.8849L4.50564 14.8849L4.50564 16.8849L5.37392 16.8849L5.37392 14.8849ZM5.50542 15.9056L5.50713 15.8234L3.50757 15.7819L3.50586 15.8641L5.50542 15.9056ZM5.50275 15.7069C5.47485 15.4168 5.34221 15.143 5.1241 14.9407L3.76388 16.4069C3.61779 16.2714 3.53032 16.0894 3.51194 15.8984L5.50275 15.7069ZM5.1241 14.9407C4.90535 14.7377 4.61633 14.6219 4.3125 14.6219L4.3125 16.6219C4.10588 16.6219 3.9106 16.543 3.76388 16.4069L5.1241 14.9407ZM4.3125 14.6219C4.00867 14.6219 3.71965 14.7377 3.5009 14.9407L4.86112 16.4069C4.7144 16.543 4.51912 16.6219 4.3125 16.6219L4.3125 14.6219ZM3.5009 14.9407C3.28279 15.143 3.15015 15.4168 3.12225 15.7069L5.11306 15.8984C5.09468 16.0894 5.00721 16.2714 4.86112 16.4069L3.5009 14.9407ZM3.11787 15.8234L3.11958 15.9056L5.11914 15.8641L5.11743 15.7819L3.11787 15.8234ZM4.11936 14.8849L3.25108 14.8849L3.25108 16.8849L4.11936 16.8849L4.11936 14.8849ZM3.25305 14.8849C3.01661 14.8844 2.78298 14.9317 2.56577 15.0236L3.34464 16.8657C3.31507 16.8782 3.28253 16.8849 3.24912 16.8849L3.25305 14.8849ZM2.56577 15.0236C2.34862 15.1154 2.15285 15.2496 1.98908 15.4172L3.41965 16.8148C3.39943 16.8355 3.37416 16.8532 3.34464 16.8657L2.56577 15.0236ZM1.98908 15.4172C1.82536 15.5848 1.69678 15.7825 1.60961 15.9985L3.46426 16.747C3.45459 16.771 3.43981 16.7942 3.41965 16.8148L1.98908 15.4172ZM1.60961 15.9985C1.52245 16.2145 1.47809 16.4451 1.47852 16.6775L3.47852 16.6737C3.47856 16.6983 3.4739 16.7231 3.46426 16.747L1.60961 15.9985ZM1.47852 16.6756L1.47852 16.8645L3.47852 16.8645V16.6756L1.47852 16.6756ZM2.47954 15.8645L0.758366 15.8628L0.756333 17.8628L2.4775 17.8645L2.47954 15.8645ZM0.752435 15.8628C0.429748 15.8644 0.125526 15.9965 -0.0954398 16.2227L1.33513 17.6203C1.18714 17.7718 0.981749 17.8617 0.762264 17.8628L0.752435 15.8628ZM-0.0954398 16.2227C-0.315652 16.448 -0.436039 16.7485 -0.437489 17.0575L1.56249 17.0669C1.56153 17.2703 1.48236 17.4696 1.33513 17.6203L-0.0954398 16.2227ZM-0.437365 17.0786C-0.432359 17.3835 -0.311956 17.6788 -0.0947574 17.9011L1.33581 16.5034C1.4803 16.6513 1.55909 16.8462 1.56237 17.0458L-0.437365 17.0786ZM-0.0947574 17.9011C0.123149 18.1241 0.422017 18.256 0.740146 18.2615L0.774553 16.2618C0.989867 16.2655 1.19061 16.3548 1.33581 16.5034L-0.0947574 17.9011ZM0.758366 18.2617L2.47954 18.2599L2.4775 16.2599L0.756333 16.2617L0.758366 18.2617ZM1.47852 17.2599L1.47852 17.4489L3.47852 17.4489L3.47852 17.2599L1.47852 17.2599ZM1.47853 17.4531C1.48049 17.9189 1.66196 18.3696 1.99049 18.7058L3.42106 17.3082C3.46021 17.3482 3.47831 17.3977 3.47851 17.4446L1.47853 17.4531ZM1.99049 18.7058C2.31978 19.0429 2.77078 19.2375 3.24667 19.2396L3.2555 17.2396C3.32214 17.2399 3.38115 17.2673 3.42106 17.3082L1.99049 18.7058ZM3.25108 19.2396L4.11936 19.2396L4.11936 17.2396L3.25108 17.2396L3.25108 19.2396ZM3.11958 18.2188L3.11787 18.301L5.11743 18.3426L5.11914 18.2604L3.11958 18.2188ZM3.11779 18.3382C3.12279 18.643 3.24319 18.9384 3.46039 19.1607L4.89096 17.763C5.03545 17.9109 5.11424 18.1058 5.11752 18.3054L3.11779 18.3382ZM3.46039 19.1607C3.6783 19.3837 3.97717 19.5156 4.2953 19.5211L4.3297 17.5214C4.54502 17.5251 4.74577 17.6144 4.89096 17.763L3.46039 19.1607ZM4.31741 19.5212C4.6401 19.5197 4.94433 19.3876 5.16529 19.1614L3.73472 17.7637C3.88271 17.6123 4.0881 17.5224 4.30759 17.5213L4.31741 19.5212ZM5.16529 19.1614C5.3855 18.936 5.50589 18.6355 5.50734 18.3265L3.50736 18.3171C3.50831 18.1137 3.58749 17.9144 3.73472 17.7637L5.16529 19.1614ZM5.50713 18.301L5.50542 18.2188L3.50586 18.2604L3.50757 18.3426L5.50713 18.301ZM4.50564 19.2396H5.37392V17.2396H4.50564V19.2396ZM5.37195 19.2396C5.60839 19.2401 5.84202 19.1927 6.05923 19.1009L5.28036 17.2588C5.30993 17.2463 5.34247 17.2395 5.37588 17.2396L5.37195 19.2396ZM6.05923 19.1009C6.27638 19.0091 6.47215 18.8749 6.63592 18.7073L5.20535 17.3096C5.22556 17.2889 5.25084 17.2712 5.28036 17.2588L6.05923 19.1009ZM6.63592 18.7073C6.79964 18.5397 6.92822 18.342 7.01539 18.126L5.16074 17.3774C5.17041 17.3535 5.18519 17.3302 5.20535 17.3096L6.63592 18.7073ZM7.01539 18.126C7.10255 17.91 7.14691 17.6793 7.14648 17.447L5.14648 17.4507C5.14643 17.4262 5.1511 17.4013 5.16074 17.3774L7.01539 18.126ZM7.14648 17.4489L7.14648 17.2599L5.14648 17.2599L5.14648 17.4489L7.14648 17.4489ZM6.14546 18.2599L7.86663 18.2617L7.86867 16.2617L6.1475 16.2599L6.14546 18.2599ZM7.87256 18.2617C8.19525 18.2601 8.49948 18.128 8.72044 17.9018L7.28987 16.5041C7.43786 16.3527 7.64325 16.2628 7.86274 16.2617L7.87256 18.2617ZM8.72044 17.9018C8.94065 17.6764 9.06104 17.3759 9.06249 17.0669L7.06251 17.0575C7.06347 16.8541 7.14264 16.6548 7.28987 16.5041L8.72044 17.9018ZM3.25864 16.8443C3.42658 16.8455 3.58249 16.9145 3.69406 17.0287L2.26349 18.4264C2.51962 18.6886 2.87116 18.8414 3.24352 18.8442L3.25864 16.8443ZM3.69406 17.0287C3.80488 17.1422 3.86369 17.2909 3.86478 17.4416L1.86483 17.4561C1.86743 17.816 2.00811 18.165 2.26349 18.4264L3.69406 17.0287ZM3.8648 17.4489L3.8648 16.6756L1.8648 16.6756L1.8648 17.4489L3.8648 17.4489ZM3.86479 16.6706C3.86517 16.7476 3.85067 16.8244 3.82159 16.8968L1.96577 16.1512C1.89805 16.3197 1.86392 16.4996 1.86481 16.6806L3.86479 16.6706ZM3.82159 16.8968C3.79248 16.9692 3.74904 17.0366 3.69265 17.0943L2.26208 15.6966C2.13385 15.8279 2.03352 15.9826 1.96577 16.1512L3.82159 16.8968ZM3.69265 17.0943C3.63621 17.152 3.56785 17.1991 3.49091 17.2315L2.715 15.3881C2.54409 15.46 2.39037 15.5653 2.26208 15.6966L3.69265 17.0943ZM3.49091 17.2315C3.41391 17.2639 3.33055 17.2807 3.24588 17.2802L3.25628 15.2802C3.07001 15.2793 2.88596 15.3161 2.715 15.3881L3.49091 17.2315ZM3.25108 17.2802H4.11936L4.11936 15.2802L3.25108 15.2802V17.2802ZM3.11936 16.2802V17.8442H5.11936V16.2802H3.11936ZM4.11936 16.8442H3.25108V18.8442H4.11936V16.8442ZM5.50564 17.8442V16.2802H3.50564V17.8442H5.50564ZM4.50564 17.2802H5.37392V15.2802H4.50564V17.2802ZM5.37912 17.2802C5.29445 17.2807 5.21109 17.2639 5.13409 17.2315L5.91 15.3881C5.73904 15.3161 5.55499 15.2793 5.36872 15.2802L5.37912 17.2802ZM5.13409 17.2315C5.05715 17.1991 4.98879 17.152 4.93235 17.0943L6.36292 15.6966C6.23463 15.5653 6.08091 15.46 5.91 15.3881L5.13409 17.2315ZM4.93235 17.0943C4.87596 17.0366 4.83252 16.9692 4.80341 16.8968L6.65923 16.1512C6.59148 15.9826 6.49115 15.8279 6.36292 15.6966L4.93235 17.0943ZM4.80341 16.8968C4.77433 16.8244 4.75983 16.7476 4.76021 16.6706L6.76019 16.6806C6.76108 16.4996 6.72695 16.3197 6.65923 16.1512L4.80341 16.8968ZM4.7602 16.6756V17.4489H6.7602V16.6756H4.7602ZM4.76022 17.4416C4.76131 17.2909 4.82012 17.1422 4.93094 17.0287L6.36151 18.4264C6.61689 18.165 6.75757 17.816 6.76017 17.4561L4.76022 17.4416ZM4.93094 17.0287C5.04251 16.9145 5.19842 16.8455 5.36636 16.8443L5.38148 18.8442C5.75384 18.8414 6.10538 18.6886 6.36151 18.4264L4.93094 17.0287ZM5.37392 16.8442H4.50564V18.8442H5.37392V16.8442ZM5.02619 18.5941C5.18194 18.5118 5.36153 18.4818 5.53762 18.5107L5.21379 20.4843C5.47046 20.5265 5.73267 20.4829 5.96094 20.3623L5.02619 18.5941ZM5.53762 18.5107C5.71353 18.5396 5.87203 18.6248 5.99139 18.7493L4.54792 20.1336C4.72446 20.3177 4.95729 20.4423 5.21379 20.4843L5.53762 18.5107ZM5.97392 18.7315C6.04188 18.7989 6.09683 18.877 6.13707 18.9617L4.33045 19.8197C4.38866 19.9423 4.46791 20.0547 4.56539 20.1514L5.97392 18.7315ZM6.13228 18.9518L5.85881 18.392L4.06177 19.2698L4.33524 19.8297L6.13228 18.9518ZM5.85709 18.3885C5.90289 18.4813 5.92992 18.5815 5.9374 18.6834L3.94275 18.8296C3.95402 18.9834 3.9948 19.1341 4.06349 19.2733L5.85709 18.3885ZM5.9374 18.6834C5.94487 18.7853 5.93271 18.8879 5.90125 18.9858L3.99717 18.3739C3.94985 18.5211 3.93148 18.6759 3.94275 18.8296L5.9374 18.6834ZM5.90125 18.9858C5.86979 19.0837 5.81937 19.1757 5.7518 19.2561L4.22085 17.9691C4.12014 18.0889 4.0445 18.2266 3.99717 18.3739L5.90125 18.9858ZM5.7518 19.2561C5.68418 19.3365 5.60054 19.4039 5.50489 19.4534L4.58661 17.6766C4.44562 17.7495 4.3216 17.8493 4.22085 17.9691L5.7518 19.2561ZM5.50489 19.4534C5.40918 19.5028 5.30386 19.533 5.19503 19.5414L5.04187 17.5472C4.88239 17.5595 4.72766 17.6037 4.58661 17.6766L5.50489 19.4534ZM5.19503 19.5414C5.0862 19.5497 4.9771 19.536 4.87426 19.5014L5.51244 17.6059C5.36135 17.5551 5.20134 17.535 5.04187 17.5472L5.19503 19.5414ZM4.87426 19.5014C4.77147 19.4668 4.6778 19.4123 4.59815 19.3421L5.91995 17.8412C5.8018 17.7371 5.66348 17.6568 5.51244 17.6059L4.87426 19.5014ZM4.59815 19.3421C4.51855 19.272 4.45456 19.1878 4.40875 19.0949L6.20235 18.21C6.13365 18.0708 6.03805 17.9452 5.91995 17.8412L4.59815 19.3421ZM4.40703 19.0914L4.6805 19.6512L6.47754 18.7734L6.20407 18.2135L4.40703 19.0914ZM4.68225 19.6548C4.63645 19.562 4.6094 19.4618 4.60192 19.3599L6.59657 19.2135C6.58529 19.0598 6.54449 18.909 6.47579 18.7698L4.68225 19.6548ZM4.60192 19.3599C4.59445 19.2579 4.60661 19.1553 4.63806 19.0574L6.54215 19.6693C6.58947 19.5221 6.60784 19.3673 6.59657 19.2135L4.60192 19.3599ZM4.63806 19.0574C4.66953 18.9595 4.71995 18.8675 4.78754 18.7871L6.31844 20.0741C6.41916 19.9543 6.49481 19.8166 6.54215 19.6693L4.63806 19.0574ZM4.78754 18.7871C4.85517 18.7067 4.93882 18.6392 5.03449 18.5898L5.95263 20.3666C6.09365 20.2937 6.21768 20.194 6.31844 20.0741L4.78754 18.7871ZM3.59065 15.5346C3.49493 15.5841 3.3896 15.6143 3.28076 15.6226L3.12751 13.6285C2.96802 13.6408 2.81329 13.685 2.67223 13.7579L3.59065 15.5346ZM3.28076 15.6226C3.1719 15.631 3.06279 15.6173 2.95995 15.5826L3.59813 13.6872C3.44704 13.6363 3.28702 13.6162 3.12751 13.6285L3.28076 15.6226ZM2.95995 15.5826C2.85716 15.548 2.76348 15.4935 2.68381 15.4233L4.00567 13.9224C3.8875 13.8184 3.74917 13.738 3.59813 13.6872L2.95995 15.5826ZM2.68381 15.4233C2.6042 15.3532 2.54021 15.269 2.4944 15.1761L4.28808 14.2914C4.21938 14.1521 4.12379 14.0265 4.00567 13.9224L2.68381 15.4233ZM2.49272 15.1727L2.76619 15.7325L4.56323 14.8546L4.28976 14.2948L2.49272 15.1727ZM2.76801 15.7362C2.68531 15.5687 2.66434 15.3786 2.70704 15.1987L4.65302 15.6604C4.71742 15.3889 4.68559 15.1025 4.56141 14.8509L2.76801 15.7362ZM2.70704 15.1987C2.74979 15.0185 2.85511 14.8545 3.01024 14.7396L4.20075 16.3467C4.43039 16.1766 4.58855 15.9321 4.65302 15.6604L2.70704 15.1987ZM3.01024 14.7396C3.16595 14.6243 3.36033 14.5673 3.5581 14.5834L3.39539 16.5768C3.68484 16.6004 3.97052 16.5172 4.20075 16.3467L3.01024 14.7396ZM3.5581 14.5834C3.75572 14.5995 3.93697 14.687 4.0708 14.8241L2.63989 16.2214C2.83874 16.425 3.10607 16.5532 3.39539 16.5768L3.5581 14.5834ZM4.05961 14.8128C4.12757 14.8802 4.18252 14.9583 4.22276 15.043L2.41614 15.901C2.47435 16.0236 2.5536 16.136 2.65108 16.2327L4.05961 14.8128ZM4.21797 15.0331L3.9445 14.4732L2.14746 15.3511L2.42093 15.9109L4.21797 15.0331ZM3.94275 14.4697C3.98855 14.5625 4.0156 14.6627 4.02308 14.7646L2.02843 14.9109C2.03971 15.0647 2.08051 15.2154 2.14921 15.3547L3.94275 14.4697ZM4.02308 14.7646C4.03055 14.8665 4.01839 14.9692 3.98694 15.0671L2.08285 14.4551C2.03553 14.6024 2.01716 14.7572 2.02843 14.9109L4.02308 14.7646ZM3.98694 15.0671C3.95547 15.165 3.90505 15.2569 3.83746 15.3373L2.30656 14.0504C2.20584 14.1702 2.13019 14.3078 2.08285 14.4551L3.98694 15.0671ZM3.83746 15.3373C3.76982 15.4178 3.68617 15.4852 3.59051 15.5347L2.67237 13.7579C2.53136 13.8307 2.40732 13.9305 2.30656 14.0504L3.83746 15.3373ZM6.13057 15.1762C6.08476 15.269 6.02078 15.3533 5.94116 15.4234L4.61936 13.9224C4.50124 14.0264 4.40566 14.152 4.33696 14.2913L6.13057 15.1762ZM5.94116 15.4234C5.86149 15.4935 5.76782 15.548 5.66505 15.5826L5.02687 13.6872C4.87585 13.738 4.73753 13.8184 4.61936 13.9224L5.94116 15.4234ZM5.66505 15.5826C5.56223 15.6173 5.45313 15.631 5.34428 15.6226L5.49745 13.6285C5.33795 13.6162 5.17795 13.6363 5.02687 13.6872L5.66505 15.5826ZM5.34428 15.6226C5.23545 15.6143 5.13013 15.5841 5.03442 15.5346L5.9527 13.7579C5.81165 13.685 5.65692 13.6407 5.49745 13.6285L5.34428 15.6226ZM5.03442 15.5346C4.84112 15.4347 4.70142 15.2642 4.63806 15.0671L6.54214 14.4551C6.44672 14.1582 6.23757 13.9051 5.9527 13.7579L5.03442 15.5346ZM4.63806 15.0671C4.57486 14.8704 4.59016 14.6563 4.68222 14.4697L6.47583 15.3546C6.61412 15.0743 6.63739 14.7515 6.54214 14.4551L4.63806 15.0671ZM4.6805 14.4732L4.40703 15.0331L6.20407 15.9109L6.47754 15.3511L4.6805 14.4732ZM4.40871 15.0296C4.45451 14.9368 4.5185 14.8525 4.59812 14.7824L5.91998 16.2833C6.0381 16.1792 6.13369 16.0536 6.20239 15.9143L4.40871 15.0296ZM4.59812 14.7824C4.67779 14.7122 4.77147 14.6577 4.87426 14.6231L5.51244 16.5185C5.66348 16.4677 5.80181 16.3873 5.91998 16.2833L4.59812 14.7824ZM4.87426 14.6231C4.9771 14.5885 5.08621 14.5747 5.19507 14.5831L5.04183 16.5772C5.20133 16.5895 5.36135 16.5694 5.51244 16.5185L4.87426 14.6231ZM5.19507 14.5831C5.30391 14.5915 5.40924 14.6217 5.50496 14.6711L4.58654 16.4478C4.7276 16.5207 4.88233 16.565 5.04183 16.5772L5.19507 14.5831ZM5.49119 14.6641C5.57854 14.7076 5.65658 14.7658 5.7223 14.8352L4.27007 16.2103C4.36439 16.3099 4.47599 16.3929 4.60031 16.4548L5.49119 14.6641ZM5.70495 14.8173C5.82644 14.9393 5.90357 15.0948 5.92936 15.2594L3.95345 15.5689C3.99215 15.8161 4.10768 16.0476 4.28741 16.2282L5.70495 14.8173ZM5.92936 15.2594C5.95513 15.424 5.92903 15.5935 5.85306 15.7441L4.06752 14.843C3.95409 15.0678 3.91475 15.3219 3.95345 15.5689L5.92936 15.2594ZM5.85881 15.7325L6.13228 15.1727L4.33524 14.2948L4.06177 14.8546L5.85881 15.7325ZM2.4944 18.9484C2.54021 18.8555 2.6042 18.7712 2.68381 18.7011L4.00567 20.202C4.12378 20.098 4.21937 19.9724 4.28808 19.8331L2.4944 18.9484ZM2.68381 18.7011C2.76348 18.631 2.85716 18.5764 2.95995 18.5418L3.59813 20.4373C3.74917 20.3864 3.8875 20.3061 4.00567 20.202L2.68381 18.7011ZM2.95995 18.5418C3.06279 18.5072 3.1719 18.4935 3.28076 18.5018L3.12751 20.496C3.28702 20.5082 3.44704 20.4881 3.59813 20.4373L2.95995 18.5418ZM3.28076 18.5018C3.3896 18.5102 3.49493 18.5404 3.59065 18.5899L2.67223 20.3665C2.81329 20.4394 2.96802 20.4837 3.12751 20.496L3.28076 18.5018ZM3.57688 18.5829C3.66423 18.6264 3.74227 18.6845 3.80799 18.7539L2.35575 20.129C2.45008 20.2286 2.56167 20.3117 2.686 20.3735L3.57688 18.5829ZM3.79064 18.736C3.91212 18.8581 3.98926 19.0135 4.01505 19.1782L2.03913 19.4877C2.07784 19.7348 2.19337 19.9663 2.3731 20.1469L3.79064 18.736ZM4.01505 19.1782C4.04082 19.3427 4.01473 19.5122 3.93875 19.6628L2.15321 18.7618C2.03977 18.9866 2.00044 19.2406 2.03913 19.4877L4.01505 19.1782ZM3.9445 19.6512L4.21797 19.0914L2.42093 18.2135L2.14746 18.7734L3.9445 19.6512ZM4.21625 19.0949C4.17044 19.1878 4.10645 19.272 4.02685 19.3421L2.70505 17.8412C2.58694 17.9452 2.49135 18.0708 2.42265 18.21L4.21625 19.0949ZM4.02685 19.3421C3.9472 19.4123 3.85353 19.4668 3.75074 19.5014L3.11256 17.6059C2.96152 17.6568 2.8232 17.7371 2.70505 17.8412L4.02685 19.3421ZM3.75074 19.5014C3.64791 19.536 3.53881 19.5497 3.42997 19.5414L3.58313 17.5472C3.42364 17.535 3.26364 17.5551 3.11256 17.6059L3.75074 19.5014ZM3.42997 19.5414C3.32114 19.533 3.21583 19.5028 3.12011 19.4534L4.03839 17.6766C3.89734 17.6037 3.74261 17.5595 3.58313 17.5472L3.42997 19.5414ZM3.12011 19.4534C3.02445 19.4039 2.94082 19.3365 2.8732 19.2561L4.40415 17.9691C4.30341 17.8493 4.17939 17.7495 4.03839 17.6766L3.12011 19.4534ZM2.8732 19.2561C2.80563 19.1757 2.75521 19.0837 2.72375 18.9858L4.62783 18.3739C4.5805 18.2266 4.50486 18.0889 4.40415 17.9691L2.8732 19.2561ZM2.72375 18.9858C2.6923 18.888 2.68013 18.7853 2.68761 18.6834L4.68225 18.8296C4.69352 18.6759 4.67515 18.5211 4.62783 18.3739L2.72375 18.9858ZM2.68761 18.6834C2.69508 18.5815 2.72212 18.4813 2.76791 18.3885L4.56151 19.2733C4.6302 19.1341 4.67098 18.9834 4.68225 18.8296L2.68761 18.6834ZM2.76619 18.392L2.49272 18.9518L4.28976 19.8297L4.56323 19.2698L2.76619 18.392Z" fill="#F6F4F2" mask="url(#path-3-outside-1_945_3845)"/>
</g>
<defs>
<clipPath id="clip0_945_3845">
<rect width="24" height="24" fill="white"/>
</clipPath>
</defs>
</svg>
