<svg width="24" height="24" viewBox="0 0 24 24" fill="none" xmlns="http://www.w3.org/2000/svg">
<g clip-path="url(#clip0_964_7404)">
<path d="M16.5 1.5C16.8978 1.5 17.2794 1.65804 17.5607 1.93934C17.842 2.22064 18 2.60218 18 3V21C18 21.3978 17.842 21.7794 17.5607 22.0607C17.2794 22.342 16.8978 22.5 16.5 22.5H7.5C7.10218 22.5 6.72064 22.342 6.43934 22.0607C6.15804 21.7794 6 21.3978 6 21V3C6 2.60218 6.15804 2.22064 6.43934 1.93934C6.72064 1.65804 7.10218 1.5 7.5 1.5H16.5ZM7.5 0C6.70435 0 5.94129 0.316071 5.37868 0.87868C4.81607 1.44129 4.5 2.20435 4.5 3V21C4.5 21.7956 4.81607 22.5587 5.37868 23.1213C5.94129 23.6839 6.70435 24 7.5 24H16.5C17.2956 24 18.0587 23.6839 18.6213 23.1213C19.1839 22.5587 19.5 21.7956 19.5 21V3C19.5 2.20435 19.1839 1.44129 18.6213 0.87868C18.0587 0.316071 17.2956 0 16.5 0L7.5 0Z" fill="#212121"/>
<path d="M12 21C12.3978 21 12.7794 20.842 13.0607 20.5607C13.342 20.2794 13.5 19.8978 13.5 19.5C13.5 19.1022 13.342 18.7206 13.0607 18.4393C12.7794 18.158 12.3978 18 12 18C11.6022 18 11.2206 18.158 10.9393 18.4393C10.658 18.7206 10.5 19.1022 10.5 19.5C10.5 19.8978 10.658 20.2794 10.9393 20.5607C11.2206 20.842 11.6022 21 12 21Z" fill="#212121"/>
<g clip-path="url(#clip1_964_7404)">
<mask id="path-3-outside-1_964_7404" maskUnits="userSpaceOnUse" x="5.47449" y="6.51704" width="11" height="8" fill="black">
<rect fill="white" x="5.47449" y="6.51704" width="11" height="8"/>
<path d="M9.73729 7.51704L9.47449 7.78045L9.93745 8.5829L10.2377 8.53876L12.0703 10.3758L11.914 10.5262C11.8339 10.6065 11.8339 10.728 11.914 10.8083L11.9953 10.8899C12.0753 10.9702 12.1978 10.9702 12.2579 10.8899L12.4957 11.1281C12.4756 11.2484 12.4957 11.3915 12.5957 11.4918L13.6778 12.5701C13.898 12.7907 14.2582 12.7907 14.4784 12.5701C14.7386 12.3293 14.7362 11.9694 14.516 11.7488L13.4402 10.664C13.3401 10.5637 13.1974 10.5236 13.0773 10.5637L12.8145 10.3256C12.8746 10.2454 12.8746 10.1226 12.8145 10.0622L12.7394 9.98718C12.7213 9.96816 12.6994 9.95303 12.6752 9.94269C12.651 9.93235 12.625 9.92702 12.5987 9.92702C12.5724 9.92702 12.5464 9.93235 12.5223 9.94269C12.4981 9.95303 12.4762 9.96816 12.458 9.98718L12.3267 10.1188L10.4941 8.28198L10.5377 7.98106L9.73709 7.51704H9.73729ZM13.6404 7.52326C13.2454 7.49036 12.7218 7.75276 12.4768 7.98086C12.1754 8.28298 12.2246 8.67799 12.4642 9.05935L12.0391 9.48565L12.3393 9.82408C12.4995 9.68365 12.7356 9.68365 12.8958 9.82408L12.9772 9.90553L12.996 9.92439L13.1712 9.74885C13.5331 9.9621 13.9098 9.9928 14.197 9.70492C14.4772 9.44412 14.7811 8.80096 14.6409 8.4198L14.0781 9.00278C13.998 9.08302 13.8767 9.08302 13.7967 9.00278L13.2148 8.4198C13.1958 8.40156 13.1807 8.37967 13.1704 8.35543C13.1601 8.33119 13.1548 8.30512 13.1548 8.27877C13.1548 8.25242 13.1601 8.22634 13.1704 8.20211C13.1807 8.17787 13.1958 8.15597 13.2148 8.13774L13.7969 7.55476C13.7468 7.53711 13.6968 7.52808 13.6404 7.52326ZM11.4386 10.0247L10.7129 10.7519C10.6349 10.7345 10.5552 10.7261 10.4753 10.7268C9.91483 10.7268 9.47449 11.1682 9.47449 11.7299C9.47449 12.2916 9.91483 12.733 10.4753 12.733C11.0357 12.733 11.4761 12.2916 11.4761 11.7299C11.4761 11.627 11.4598 11.5281 11.4322 11.4352L11.8576 11.0089L11.7951 10.9274C11.635 10.767 11.6362 10.5238 11.7763 10.3631L11.4384 10.0247H11.4386ZM12.9898 10.9401C13.0149 10.9401 13.0385 10.9449 13.0585 10.9652L14.2408 12.15C14.2809 12.1901 14.2809 12.2539 14.2408 12.294C14.2008 12.3341 14.1367 12.3341 14.0967 12.294L12.9148 11.1092C12.8748 11.0691 12.8748 11.0053 12.9148 10.9652C12.9348 10.9451 12.9648 10.9401 12.9898 10.9401ZM10.613 11.2093L10.9945 11.5919L10.8568 12.1121L10.3378 12.2501L9.95607 11.8675L10.0938 11.3473L10.613 11.2093Z"/>
</mask>
<path d="M9.73729 7.51704L9.47449 7.78045L9.93745 8.5829L10.2377 8.53876L12.0703 10.3758L11.914 10.5262C11.8339 10.6065 11.8339 10.728 11.914 10.8083L11.9953 10.8899C12.0753 10.9702 12.1978 10.9702 12.2579 10.8899L12.4957 11.1281C12.4756 11.2484 12.4957 11.3915 12.5957 11.4918L13.6778 12.5701C13.898 12.7907 14.2582 12.7907 14.4784 12.5701C14.7386 12.3293 14.7362 11.9694 14.516 11.7488L13.4402 10.664C13.3401 10.5637 13.1974 10.5236 13.0773 10.5637L12.8145 10.3256C12.8746 10.2454 12.8746 10.1226 12.8145 10.0622L12.7394 9.98718C12.7213 9.96816 12.6994 9.95303 12.6752 9.94269C12.651 9.93235 12.625 9.92702 12.5987 9.92702C12.5724 9.92702 12.5464 9.93235 12.5223 9.94269C12.4981 9.95303 12.4762 9.96816 12.458 9.98718L12.3267 10.1188L10.4941 8.28198L10.5377 7.98106L9.73709 7.51704H9.73729ZM13.6404 7.52326C13.2454 7.49036 12.7218 7.75276 12.4768 7.98086C12.1754 8.28298 12.2246 8.67799 12.4642 9.05935L12.0391 9.48565L12.3393 9.82408C12.4995 9.68365 12.7356 9.68365 12.8958 9.82408L12.9772 9.90553L12.996 9.92439L13.1712 9.74885C13.5331 9.9621 13.9098 9.9928 14.197 9.70492C14.4772 9.44412 14.7811 8.80096 14.6409 8.4198L14.0781 9.00278C13.998 9.08302 13.8767 9.08302 13.7967 9.00278L13.2148 8.4198C13.1958 8.40156 13.1807 8.37967 13.1704 8.35543C13.1601 8.33119 13.1548 8.30512 13.1548 8.27877C13.1548 8.25242 13.1601 8.22634 13.1704 8.20211C13.1807 8.17787 13.1958 8.15597 13.2148 8.13774L13.7969 7.55476C13.7468 7.53711 13.6968 7.52808 13.6404 7.52326ZM11.4386 10.0247L10.7129 10.7519C10.6349 10.7345 10.5552 10.7261 10.4753 10.7268C9.91483 10.7268 9.47449 11.1682 9.47449 11.7299C9.47449 12.2916 9.91483 12.733 10.4753 12.733C11.0357 12.733 11.4761 12.2916 11.4761 11.7299C11.4761 11.627 11.4598 11.5281 11.4322 11.4352L11.8576 11.0089L11.7951 10.9274C11.635 10.767 11.6362 10.5238 11.7763 10.3631L11.4384 10.0247H11.4386ZM12.9898 10.9401C13.0149 10.9401 13.0385 10.9449 13.0585 10.9652L14.2408 12.15C14.2809 12.1901 14.2809 12.2539 14.2408 12.294C14.2008 12.3341 14.1367 12.3341 14.0967 12.294L12.9148 11.1092C12.8748 11.0691 12.8748 11.0053 12.9148 10.9652C12.9348 10.9451 12.9648 10.9401 12.9898 10.9401ZM10.613 11.2093L10.9945 11.5919L10.8568 12.1121L10.3378 12.2501L9.95607 11.8675L10.0938 11.3473L10.613 11.2093Z" fill="#212121"/>
<path d="M9.73729 7.51704L10.4452 8.22335L12.1476 6.51704H9.73729V7.51704ZM9.47449 7.78045L8.76658 7.07414L8.22542 7.61653L8.60831 8.28018L9.47449 7.78045ZM9.93745 8.5829L9.07127 9.08263L9.41076 9.67107L10.0829 9.57226L9.93745 8.5829ZM10.2377 8.53876L10.9456 7.8325L10.5902 7.4762L10.0922 7.54939L10.2377 8.53876ZM12.0703 10.3758L12.7638 11.0963L13.4973 10.3902L12.7783 9.6695L12.0703 10.3758ZM11.914 10.5262L11.2205 9.80573L11.2132 9.81275L11.2061 9.81992L11.914 10.5262ZM11.914 10.8083L12.6228 10.1028L12.6219 10.102L11.914 10.8083ZM11.9953 10.8899L11.2865 11.5954L11.2874 11.5962L11.9953 10.8899ZM12.2579 10.8899L12.9655 10.1833L12.1493 9.36596L11.4572 10.2908L12.2579 10.8899ZM12.4957 11.1281L13.4821 11.2921L13.5664 10.7851L13.2033 10.4215L12.4957 11.1281ZM12.5957 11.4918L11.8878 12.1981L11.8899 12.2001L12.5957 11.4918ZM13.6778 12.5701L14.3857 11.8638L14.3837 11.8617L13.6778 12.5701ZM14.4784 12.5701L13.7993 11.836L13.7846 11.8496L13.7705 11.8638L14.4784 12.5701ZM14.516 11.7488L13.806 12.453L13.8081 12.4551L14.516 11.7488ZM13.4402 10.664L14.1502 9.95984L14.1481 9.95774L13.4402 10.664ZM13.0773 10.5637L12.4059 11.3048L12.8394 11.6976L13.3942 11.5122L13.0773 10.5637ZM12.8145 10.3256L12.0139 9.72648L11.4684 10.4554L12.1431 11.0667L12.8145 10.3256ZM12.8145 10.0622L13.5236 9.35708L13.5215 9.35496L12.8145 10.0622ZM12.7394 9.98718L12.0169 10.6785L12.0246 10.6865L12.0325 10.6944L12.7394 9.98718ZM12.458 9.98718L13.1659 10.6935L13.1733 10.6861L13.1806 10.6785L12.458 9.98718ZM12.3267 10.1188L11.6188 10.8251L12.3267 11.5346L13.0346 10.8251L12.3267 10.1188ZM10.4941 8.28198L9.50444 8.13847L9.4326 8.6339L9.78618 8.98828L10.4941 8.28198ZM10.5377 7.98106L11.5274 8.12456L11.6244 7.45508L11.0392 7.11586L10.5377 7.98106ZM9.73709 7.51704V6.51704H6.01739L9.23566 8.38224L9.73709 7.51704ZM13.6404 7.52326L13.7253 6.52688L13.7234 6.52672L13.6404 7.52326ZM12.4768 7.98086L11.7954 7.24896L11.7819 7.26152L11.7689 7.27456L12.4768 7.98086ZM12.4642 9.05935L13.1723 9.76549L13.7346 9.20165L13.311 8.52738L12.4642 9.05935ZM12.0391 9.48565L11.331 8.77951L10.6668 9.44559L11.291 10.1493L12.0391 9.48565ZM12.3393 9.82408L11.5913 10.4877L12.2511 11.2315L12.9987 10.5759L12.3393 9.82408ZM12.8958 9.82408L13.6028 9.11691L13.5797 9.0938L13.5551 9.07225L12.8958 9.82408ZM12.9772 9.90553L13.6851 9.19923L13.6843 9.19836L12.9772 9.90553ZM12.996 9.92439L12.2881 10.6307L12.996 11.3402L13.704 10.6307L12.996 9.92439ZM13.1712 9.74885L13.6789 8.88731L13.0109 8.49369L12.4633 9.04255L13.1712 9.74885ZM14.197 9.70492L13.5157 8.97289L13.5022 8.98551L13.4891 8.99861L14.197 9.70492ZM14.6409 8.4198L15.5795 8.07478L15.0293 6.57783L13.9215 7.72522L14.6409 8.4198ZM14.0781 9.00278L14.786 9.70908L14.7918 9.70326L14.7975 9.69735L14.0781 9.00278ZM13.7967 9.00278L14.5046 8.29647L14.5045 8.29635L13.7967 9.00278ZM13.2148 8.4198L13.9226 7.71337L13.9153 7.70602L13.9078 7.69882L13.2148 8.4198ZM13.2148 8.13774L13.9078 8.85872L13.9152 8.85158L13.9225 8.84428L13.2148 8.13774ZM13.7969 7.55476L14.5045 8.26131L15.6248 7.13925L14.1296 6.61173L13.7969 7.55476ZM11.4386 10.0247L12.1464 10.7311L13.8494 9.02469H11.4386V10.0247ZM10.7129 10.7519L10.4955 11.728L11.0322 11.8475L11.4207 11.4583L10.7129 10.7519ZM10.4753 10.7268V11.7269L10.4841 11.7268L10.4753 10.7268ZM11.4322 11.4352L10.7243 10.7289L10.3041 11.15L10.4737 11.7202L11.4322 11.4352ZM11.8576 11.0089L12.5655 11.7152L13.1839 11.0953L12.6511 10.4004L11.8576 11.0089ZM11.7951 10.9274L12.5887 10.319L12.549 10.2673L12.503 10.2211L11.7951 10.9274ZM11.7763 10.3631L12.53 11.0203L13.1433 10.317L12.484 9.65661L11.7763 10.3631ZM11.4384 10.0247V9.02469H9.02708L10.7307 10.7312L11.4384 10.0247ZM13.0585 10.9652L12.3471 11.6679L12.3506 11.6715L13.0585 10.9652ZM14.2408 12.15L14.9487 11.4437L14.9487 11.4436L14.2408 12.15ZM14.0967 12.294L13.3887 13.0003L13.3888 13.0003L14.0967 12.294ZM12.9148 11.1092L13.6228 10.403L13.6227 10.4029L12.9148 11.1092ZM12.9148 10.9652L12.2069 10.2589L12.9148 10.9652ZM10.613 11.2093L11.3211 10.5032L10.9137 10.0946L10.3561 10.2429L10.613 11.2093ZM10.9945 11.5919L11.9612 11.8478L12.1082 11.2925L11.7026 10.8858L10.9945 11.5919ZM10.8568 12.1121L11.1138 13.0785L11.6749 12.9293L11.8235 12.368L10.8568 12.1121ZM10.3378 12.2501L9.62986 12.9564L10.0373 13.3647L10.5948 13.2165L10.3378 12.2501ZM9.95607 11.8675L8.98937 11.6116L8.84232 12.1671L9.24816 12.5738L9.95607 11.8675ZM10.0938 11.3473L9.83687 10.3809L9.27568 10.5301L9.12707 11.0914L10.0938 11.3473ZM9.02938 6.81074L8.76658 7.07414L10.1824 8.48675L10.4452 8.22335L9.02938 6.81074ZM8.60831 8.28018L9.07127 9.08263L10.8036 8.08316L10.3407 7.28071L8.60831 8.28018ZM10.0829 9.57226L10.3831 9.52813L10.0922 7.54939L9.79201 7.59353L10.0829 9.57226ZM9.52974 9.24503L11.3624 11.082L12.7783 9.6695L10.9456 7.8325L9.52974 9.24503ZM11.3769 9.65527L11.2205 9.80573L12.6075 11.2467L12.7638 11.0963L11.3769 9.65527ZM11.2061 9.81992C10.7366 10.2905 10.7366 11.044 11.2061 11.5146L12.6219 10.102C12.9313 10.4121 12.9313 10.9224 12.6219 11.2325L11.2061 9.81992ZM11.2052 11.5137L11.2865 11.5954L12.704 10.1845L12.6228 10.1028L11.2052 11.5137ZM11.2874 11.5962C11.6928 12.0026 12.5495 12.1693 13.0585 11.4891L11.4572 10.2908C11.8462 9.77103 12.4579 9.9378 12.7032 10.1836L11.2874 11.5962ZM11.5503 11.5965L11.788 11.8347L13.2033 10.4215L12.9655 10.1833L11.5503 11.5965ZM11.5092 10.964C11.4566 11.2801 11.4846 11.794 11.8878 12.1981L13.3036 10.7855C13.5067 10.9889 13.4946 11.2168 13.4821 11.2921L11.5092 10.964ZM11.8899 12.2001L12.9719 13.2784L14.3837 11.8617L13.3016 10.7834L11.8899 12.2001ZM12.9699 13.2764C13.5808 13.8886 14.5754 13.8886 15.1863 13.2764L13.7705 11.8638C13.941 11.6928 14.2152 11.6928 14.3857 11.8638L12.9699 13.2764ZM15.1575 13.3041C15.8201 12.6911 15.8579 11.6779 15.224 11.0424L13.8081 12.4551C13.7235 12.3702 13.674 12.2489 13.6778 12.1221C13.6817 11.9915 13.7399 11.891 13.7993 11.836L15.1575 13.3041ZM15.226 11.0446L14.1502 9.95984L12.7302 11.3682L13.806 12.453L15.226 11.0446ZM14.1481 9.95774C13.8244 9.63333 13.2964 9.43621 12.7604 9.61527L13.3942 11.5122C13.0984 11.611 12.8558 11.4941 12.7323 11.3703L14.1481 9.95774ZM13.7488 9.82269L13.486 9.58457L12.1431 11.0667L12.4059 11.3048L13.7488 9.82269ZM13.6152 10.9247C13.7869 10.6952 13.8595 10.4292 13.8595 10.1865C13.8595 9.95338 13.7893 9.62431 13.5236 9.35708L12.1054 10.7673C11.8997 10.5605 11.8595 10.323 11.8595 10.1865C11.8595 10.0402 11.9022 9.87575 12.0139 9.72648L13.6152 10.9247ZM13.5215 9.35496L13.4464 9.27993L12.0325 10.6944L12.1075 10.7695L13.5215 9.35496ZM13.462 9.29586C13.3506 9.17941 13.2167 9.08663 13.0683 9.02319L12.2821 10.8622C12.1821 10.8194 12.0919 10.7569 12.0169 10.6785L13.462 9.29586ZM13.0683 9.02319C12.9199 8.95976 12.7602 8.92702 12.5987 8.92702V10.927C12.4899 10.927 12.3821 10.9049 12.2821 10.8622L13.0683 9.02319ZM12.5987 8.92702C12.4373 8.92702 12.2775 8.95976 12.1292 9.02319L12.9153 10.8622C12.8153 10.9049 12.7076 10.927 12.5987 10.927V8.92702ZM12.1292 9.02319C11.9808 9.08663 11.8469 9.17941 11.7355 9.29586L13.1806 10.6785C13.1056 10.7569 13.0154 10.8194 12.9153 10.8622L12.1292 9.02319ZM11.7501 9.28087L11.6188 9.41248L13.0346 10.8251L13.1659 10.6935L11.7501 9.28087ZM13.0346 9.41248L11.202 7.57567L9.78618 8.98828L11.6188 10.8251L13.0346 9.41248ZM11.4837 8.42548L11.5274 8.12456L9.54807 7.83756L9.50444 8.13847L11.4837 8.42548ZM11.0392 7.11586L10.2385 6.65185L9.23566 8.38224L10.0363 8.84625L11.0392 7.11586ZM9.73709 8.51704H9.73729V6.51704H9.73709V8.51704ZM13.7234 6.52672C13.2981 6.49129 12.8956 6.61248 12.6099 6.73444C12.315 6.86029 12.0188 7.04098 11.7954 7.24896L13.1583 8.71275C13.1634 8.70795 13.1888 8.68635 13.2371 8.65611C13.2833 8.62716 13.338 8.59823 13.3949 8.57393C13.4525 8.54937 13.5019 8.53399 13.5385 8.52606C13.5775 8.51759 13.5819 8.52186 13.5573 8.51981L13.7234 6.52672ZM11.7689 7.27456C11.4242 7.62003 11.2566 8.05888 11.268 8.51524C11.2784 8.93713 11.4385 9.30648 11.6175 9.59132L13.311 8.52738C13.2835 8.48354 13.2708 8.45408 13.2659 8.44019C13.2611 8.42649 13.2666 8.43606 13.2673 8.46554C13.2681 8.49769 13.2628 8.54348 13.2431 8.59309C13.2233 8.64286 13.1978 8.67404 13.1848 8.68716L11.7689 7.27456ZM11.7562 8.35321L11.331 8.77951L12.7472 10.1918L13.1723 9.76549L11.7562 8.35321ZM11.291 10.1493L11.5913 10.4877L13.0874 9.16045L12.7872 8.82202L11.291 10.1493ZM12.9987 10.5759C12.7815 10.7664 12.4536 10.7664 12.2364 10.5759L13.5551 9.07225C13.0177 8.60093 12.2174 8.60093 11.68 9.07225L12.9987 10.5759ZM12.1887 10.5313L12.2702 10.6127L13.6843 9.19836L13.6028 9.11691L12.1887 10.5313ZM12.2693 10.6118L12.2881 10.6307L13.704 9.21809L13.6851 9.19923L12.2693 10.6118ZM13.704 10.6307L13.8791 10.4552L12.4633 9.04255L12.2881 9.21808L13.704 10.6307ZM12.6635 10.6104C12.9477 10.7779 13.3112 10.9186 13.7215 10.9148C14.1602 10.9106 14.5767 10.7402 14.9049 10.4112L13.4891 8.99861C13.5024 8.98529 13.5319 8.96118 13.5782 8.94165C13.6245 8.92214 13.6688 8.91517 13.7026 8.91485C13.7623 8.91429 13.7565 8.93308 13.6789 8.88731L12.6635 10.6104ZM14.8783 10.4369C15.1549 10.1795 15.3752 9.81381 15.5089 9.46906C15.6307 9.15512 15.777 8.61185 15.5795 8.07478L13.7023 8.76481C13.6676 8.67029 13.6783 8.61523 13.6763 8.63386C13.6747 8.64737 13.6673 8.68644 13.6442 8.74593C13.6219 8.80347 13.5923 8.86122 13.5614 8.90964C13.5281 8.96172 13.5084 8.97969 13.5157 8.97289L14.8783 10.4369ZM13.9215 7.72522L13.3587 8.3082L14.7975 9.69735L15.3604 9.11437L13.9215 7.72522ZM13.3702 8.29647C13.6808 7.98512 14.1939 7.98512 14.5046 8.29647L13.0888 9.70908C13.5595 10.1809 14.3152 10.1809 14.786 9.70908L13.3702 8.29647ZM14.5045 8.29635L13.9226 7.71337L12.507 9.12622L13.0889 9.7092L14.5045 8.29635ZM13.9078 7.69882C13.986 7.77403 14.0482 7.8642 14.0906 7.96384L12.2503 8.74702C12.3133 8.89513 12.4057 9.02909 12.5219 9.14078L13.9078 7.69882ZM14.0906 7.96384C14.133 8.06348 14.1548 8.1706 14.1548 8.27877H12.1548C12.1548 8.43964 12.1873 8.5989 12.2503 8.74702L14.0906 7.96384ZM14.1548 8.27877C14.1548 8.38694 14.133 8.49405 14.0906 8.59369L12.2503 7.81052C12.1873 7.95863 12.1548 8.1179 12.1548 8.27877H14.1548ZM14.0906 8.59369C14.0482 8.69334 13.986 8.78351 13.9078 8.85872L12.5219 7.41676C12.4057 7.52844 12.3133 7.6624 12.2503 7.81052L14.0906 8.59369ZM13.9225 8.84428L14.5045 8.26131L13.0892 6.84821L12.5072 7.43119L13.9225 8.84428ZM14.1296 6.61173C13.9779 6.55822 13.8399 6.53665 13.7253 6.52688L13.5554 8.51964C13.556 8.5197 13.5457 8.51886 13.5285 8.51549C13.5104 8.51195 13.4883 8.50631 13.4642 8.49779L14.1296 6.61173ZM10.7308 9.31829L10.005 10.0455L11.4207 11.4583L12.1464 10.7311L10.7308 9.31829ZM10.9302 9.77582C10.778 9.74192 10.6224 9.7255 10.4665 9.72687L10.4841 11.7268C10.4879 11.7268 10.4917 11.7272 10.4955 11.728L10.9302 9.77582ZM10.4753 9.72684C9.36041 9.72684 8.47449 10.618 8.47449 11.7299H10.4745C10.4745 11.7252 10.4749 11.7224 10.4752 11.7212C10.4754 11.72 10.4756 11.7197 10.4754 11.7201C10.4751 11.7209 10.4742 11.7224 10.4726 11.724C10.471 11.7256 10.4692 11.7267 10.4678 11.7273C10.4672 11.7276 10.4671 11.7275 10.4679 11.7274C10.4687 11.7272 10.471 11.7268 10.4753 11.7268V9.72684ZM8.47449 11.7299C8.47449 12.8418 9.36041 13.733 10.4753 13.733V11.733C10.471 11.733 10.4687 11.7325 10.4679 11.7324C10.4671 11.7322 10.4672 11.7322 10.4678 11.7325C10.4692 11.733 10.471 11.7342 10.4726 11.7358C10.4742 11.7374 10.4751 11.7389 10.4754 11.7397C10.4756 11.7401 10.4754 11.7398 10.4752 11.7386C10.4749 11.7374 10.4745 11.7346 10.4745 11.7299H8.47449ZM10.4753 13.733C11.5901 13.733 12.4761 12.8418 12.4761 11.7299H10.4761C10.4761 11.7346 10.4756 11.7374 10.4754 11.7386C10.4751 11.7398 10.475 11.7401 10.4751 11.7397C10.4754 11.7389 10.4763 11.7374 10.4779 11.7358C10.4795 11.7342 10.4813 11.733 10.4827 11.7325C10.4834 11.7322 10.4834 11.7322 10.4826 11.7324C10.4819 11.7325 10.4795 11.733 10.4753 11.733V13.733ZM12.4761 11.7299C12.4761 11.5214 12.4432 11.3265 12.3907 11.1502L10.4737 11.7202C10.4765 11.7297 10.4761 11.7325 10.4761 11.7299H12.4761ZM12.1401 12.1415L12.5655 11.7152L11.1496 10.3026L10.7243 10.7289L12.1401 12.1415ZM12.6511 10.4004L12.5887 10.319L11.0015 11.5359L11.064 11.6174L12.6511 10.4004ZM12.503 10.2211C12.729 10.4477 12.721 10.8013 12.53 11.0203L11.0226 9.70593C10.5514 10.2463 10.5409 11.0863 11.0872 11.6338L12.503 10.2211ZM12.484 9.65661L12.1461 9.31818L10.7307 10.7312L11.0686 11.0696L12.484 9.65661ZM11.4384 11.0247H11.4386V9.02469H11.4384V11.0247ZM12.9898 11.9401C12.9425 11.9401 12.841 11.9363 12.7179 11.8964C12.5841 11.853 12.4548 11.777 12.3471 11.6679L13.7699 10.2624C13.4866 9.97562 13.1514 9.94009 12.9898 9.94009V11.9401ZM12.3506 11.6715L13.533 12.8563L14.9487 11.4436L13.7663 10.2588L12.3506 11.6715ZM13.5329 12.8563C13.1835 12.5061 13.1835 11.9379 13.5329 11.5877L14.9487 13.0003C15.3782 12.5699 15.3782 11.8741 14.9487 11.4437L13.5329 12.8563ZM13.5329 11.5877C13.8836 11.2362 14.4539 11.2362 14.8046 11.5877L13.3888 13.0003C13.8195 13.432 14.518 13.432 14.9487 13.0003L13.5329 11.5877ZM14.8047 11.5878L13.6228 10.403L12.2068 11.8154L13.3887 13.0003L14.8047 11.5878ZM13.6227 10.4029C13.9721 10.7531 13.9721 11.3212 13.6227 11.6715L12.2069 10.2589C11.7774 10.6893 11.7774 11.385 12.2069 11.8155L13.6227 10.4029ZM13.6227 11.6715C13.483 11.8115 13.3306 11.8764 13.2257 11.9065C13.123 11.9359 13.0384 11.9401 12.9898 11.9401V9.94009C12.8867 9.94009 12.5148 9.95024 12.2069 10.2589L13.6227 11.6715ZM9.90489 11.9154L10.2864 12.298L11.7026 10.8858L11.3211 10.5032L9.90489 11.9154ZM10.0278 11.336L9.89007 11.8561L11.8235 12.368L11.9612 11.8478L10.0278 11.336ZM10.5998 11.1456L10.0808 11.2837L10.5948 13.2165L11.1138 13.0785L10.5998 11.1456ZM11.0457 11.5438L10.664 11.1612L9.24816 12.5738L9.62986 12.9564L11.0457 11.5438ZM10.9228 12.1234L11.0605 11.6032L9.12707 11.0914L8.98937 11.6116L10.9228 12.1234ZM10.3507 12.3138L10.8699 12.1757L10.3561 10.2429L9.83687 10.3809L10.3507 12.3138Z" fill="#D0C9C0" mask="url(#path-3-outside-1_964_7404)"/>
</g>
</g>
<defs>
<clipPath id="clip0_964_7404">
<rect width="24" height="24" fill="white"/>
</clipPath>
<clipPath id="clip1_964_7404">
<rect width="7.5" height="6.75" fill="white" transform="translate(8.25 6.75)"/>
</clipPath>
</defs>
</svg>
