<svg width="24" height="24" viewBox="0 0 24 24" fill="none" xmlns="http://www.w3.org/2000/svg">
<path fill-rule="evenodd" clip-rule="evenodd" d="M14 7C13.7348 7 13.4804 7.10536 13.2929 7.29289C13.1054 7.48043 13 7.73478 13 8V16C13 16.2652 13.1054 16.5196 13.2929 16.7071C13.4804 16.8946 13.7348 17 14 17H18C18.2652 17 18.5196 16.8946 18.7071 16.7071C18.8946 16.5196 19 16.2652 19 16V8C19 7.73478 18.8946 7.48043 18.7071 7.29289C18.5196 7.10536 18.2652 7 18 7H14ZM17 9H15V15H17V9Z" fill="#212121"/>
<path d="M6 7C5.73478 7 5.48043 7.10536 5.29289 7.29289C5.10536 7.48043 5 7.73478 5 8C5 8.26522 5.10536 8.51957 5.29289 8.70711C5.48043 8.89464 5.73478 9 6 9H10C10.2652 9 10.5196 8.89464 10.7071 8.70711C10.8946 8.51957 11 8.26522 11 8C11 7.73478 10.8946 7.48043 10.7071 7.29289C10.5196 7.10536 10.2652 7 10 7H6ZM6 11C5.73478 11 5.48043 11.1054 5.29289 11.2929C5.10536 11.4804 5 11.7348 5 12C5 12.2652 5.10536 12.5196 5.29289 12.7071C5.48043 12.8946 5.73478 13 6 13H10C10.2652 13 10.5196 12.8946 10.7071 12.7071C10.8946 12.5196 11 12.2652 11 12C11 11.7348 10.8946 11.4804 10.7071 11.2929C10.5196 11.1054 10.2652 11 10 11H6ZM5 16C5 15.7348 5.10536 15.4804 5.29289 15.2929C5.48043 15.1054 5.73478 15 6 15H10C10.2652 15 10.5196 15.1054 10.7071 15.2929C10.8946 15.4804 11 15.7348 11 16C11 16.2652 10.8946 16.5196 10.7071 16.7071C10.5196 16.8946 10.2652 17 10 17H6C5.73478 17 5.48043 16.8946 5.29289 16.7071C5.10536 16.5196 5 16.2652 5 16Z" fill="#212121"/>
<path fill-rule="evenodd" clip-rule="evenodd" d="M4 3C3.20435 3 2.44129 3.31607 1.87868 3.87868C1.31607 4.44129 1 5.20435 1 6V18C1 18.7956 1.31607 19.5587 1.87868 20.1213C2.44129 20.6839 3.20435 21 4 21H20C20.7956 21 21.5587 20.6839 22.1213 20.1213C22.6839 19.5587 23 18.7956 23 18V6C23 5.20435 22.6839 4.44129 22.1213 3.87868C21.5587 3.31607 20.7956 3 20 3H4ZM20 5H4C3.73478 5 3.48043 5.10536 3.29289 5.29289C3.10536 5.48043 3 5.73478 3 6V18C3 18.2652 3.10536 18.5196 3.29289 18.7071C3.48043 18.8946 3.73478 19 4 19H20C20.2652 19 20.5196 18.8946 20.7071 18.7071C20.8946 18.5196 21 18.2652 21 18V6C21 5.73478 20.8946 5.48043 20.7071 5.29289C20.5196 5.10536 20.2652 5 20 5Z" fill="#212121"/>
<g clip-path="url(#clip0_964_7400)">
<mask id="path-4-outside-1_964_7400" maskUnits="userSpaceOnUse" x="13.7245" y="16.0795" width="11" height="8" fill="black">
<rect fill="white" x="13.7245" y="16.0795" width="11" height="8"/>
<path d="M17.9873 17.0795L17.7245 17.3429L18.1875 18.1454L18.4877 18.1013L20.3203 19.9383L20.164 20.0887C20.0839 20.169 20.0839 20.2905 20.164 20.3708L20.2453 20.4524C20.3253 20.5327 20.4478 20.5327 20.5079 20.4524L20.7457 20.6906C20.7256 20.8109 20.7457 20.954 20.8457 21.0543L21.9278 22.1326C22.148 22.3532 22.5082 22.3532 22.7284 22.1326C22.9886 21.8918 22.9862 21.5319 22.766 21.3113L21.6902 20.2265C21.5901 20.1262 21.4474 20.0861 21.3273 20.1262L21.0645 19.8881C21.1246 19.8079 21.1246 19.6851 21.0645 19.6247L20.9894 19.5497C20.9713 19.5307 20.9494 19.5155 20.9252 19.5052C20.901 19.4949 20.875 19.4895 20.8487 19.4895C20.8224 19.4895 20.7964 19.4949 20.7723 19.5052C20.7481 19.5155 20.7262 19.5307 20.708 19.5497L20.5767 19.6813L18.7441 17.8445L18.7877 17.5436L17.9871 17.0795H17.9873ZM21.8904 17.0858C21.4954 17.0529 20.9718 17.3153 20.7268 17.5434C20.4254 17.8455 20.4746 18.2405 20.7142 18.6218L20.2891 19.0481L20.5893 19.3866C20.7495 19.2462 20.9856 19.2462 21.1458 19.3866L21.2272 19.468L21.246 19.4869L21.4212 19.3114C21.7831 19.5246 22.1598 19.5553 22.447 19.2674C22.7272 19.0066 23.0311 18.3635 22.8909 17.9823L22.3281 18.5653C22.248 18.6455 22.1267 18.6455 22.0467 18.5653L21.4648 17.9823C21.4458 17.9641 21.4307 17.9422 21.4204 17.9179C21.4101 17.8937 21.4048 17.8676 21.4048 17.8413C21.4048 17.8149 21.4101 17.7888 21.4204 17.7646C21.4307 17.7404 21.4458 17.7185 21.4648 17.7002L22.0469 17.1173C21.9968 17.0996 21.9468 17.0906 21.8904 17.0858ZM19.6886 19.5872L18.9629 20.3144C18.8849 20.297 18.8052 20.2886 18.7253 20.2893C18.1648 20.2893 17.7245 20.7307 17.7245 21.2924C17.7245 21.8541 18.1648 22.2955 18.7253 22.2955C19.2857 22.2955 19.7261 21.8541 19.7261 21.2924C19.7261 21.1895 19.7098 21.0906 19.6822 20.9977L20.1076 20.5714L20.0451 20.4899C19.885 20.3295 19.8862 20.0863 20.0263 19.9256L19.6884 19.5872H19.6886ZM21.2398 20.5026C21.2649 20.5026 21.2885 20.5074 21.3085 20.5277L22.4908 21.7125C22.5309 21.7526 22.5309 21.8164 22.4908 21.8565C22.4508 21.8966 22.3867 21.8966 22.3467 21.8565L21.1648 20.6717C21.1248 20.6316 21.1248 20.5678 21.1648 20.5277C21.1848 20.5076 21.2148 20.5026 21.2398 20.5026ZM18.863 20.7718L19.2445 21.1544L19.1068 21.6746L18.5878 21.8126L18.2061 21.43L18.3438 20.9098L18.863 20.7718Z"/>
</mask>
<path d="M17.9873 17.0795L17.7245 17.3429L18.1875 18.1454L18.4877 18.1013L20.3203 19.9383L20.164 20.0887C20.0839 20.169 20.0839 20.2905 20.164 20.3708L20.2453 20.4524C20.3253 20.5327 20.4478 20.5327 20.5079 20.4524L20.7457 20.6906C20.7256 20.8109 20.7457 20.954 20.8457 21.0543L21.9278 22.1326C22.148 22.3532 22.5082 22.3532 22.7284 22.1326C22.9886 21.8918 22.9862 21.5319 22.766 21.3113L21.6902 20.2265C21.5901 20.1262 21.4474 20.0861 21.3273 20.1262L21.0645 19.8881C21.1246 19.8079 21.1246 19.6851 21.0645 19.6247L20.9894 19.5497C20.9713 19.5307 20.9494 19.5155 20.9252 19.5052C20.901 19.4949 20.875 19.4895 20.8487 19.4895C20.8224 19.4895 20.7964 19.4949 20.7723 19.5052C20.7481 19.5155 20.7262 19.5307 20.708 19.5497L20.5767 19.6813L18.7441 17.8445L18.7877 17.5436L17.9871 17.0795H17.9873ZM21.8904 17.0858C21.4954 17.0529 20.9718 17.3153 20.7268 17.5434C20.4254 17.8455 20.4746 18.2405 20.7142 18.6218L20.2891 19.0481L20.5893 19.3866C20.7495 19.2462 20.9856 19.2462 21.1458 19.3866L21.2272 19.468L21.246 19.4869L21.4212 19.3114C21.7831 19.5246 22.1598 19.5553 22.447 19.2674C22.7272 19.0066 23.0311 18.3635 22.8909 17.9823L22.3281 18.5653C22.248 18.6455 22.1267 18.6455 22.0467 18.5653L21.4648 17.9823C21.4458 17.9641 21.4307 17.9422 21.4204 17.9179C21.4101 17.8937 21.4048 17.8676 21.4048 17.8413C21.4048 17.8149 21.4101 17.7888 21.4204 17.7646C21.4307 17.7404 21.4458 17.7185 21.4648 17.7002L22.0469 17.1173C21.9968 17.0996 21.9468 17.0906 21.8904 17.0858ZM19.6886 19.5872L18.9629 20.3144C18.8849 20.297 18.8052 20.2886 18.7253 20.2893C18.1648 20.2893 17.7245 20.7307 17.7245 21.2924C17.7245 21.8541 18.1648 22.2955 18.7253 22.2955C19.2857 22.2955 19.7261 21.8541 19.7261 21.2924C19.7261 21.1895 19.7098 21.0906 19.6822 20.9977L20.1076 20.5714L20.0451 20.4899C19.885 20.3295 19.8862 20.0863 20.0263 19.9256L19.6884 19.5872H19.6886ZM21.2398 20.5026C21.2649 20.5026 21.2885 20.5074 21.3085 20.5277L22.4908 21.7125C22.5309 21.7526 22.5309 21.8164 22.4908 21.8565C22.4508 21.8966 22.3867 21.8966 22.3467 21.8565L21.1648 20.6717C21.1248 20.6316 21.1248 20.5678 21.1648 20.5277C21.1848 20.5076 21.2148 20.5026 21.2398 20.5026ZM18.863 20.7718L19.2445 21.1544L19.1068 21.6746L18.5878 21.8126L18.2061 21.43L18.3438 20.9098L18.863 20.7718Z" fill="#212121"/>
<path d="M17.9873 17.0795L18.6952 17.7858L20.3976 16.0795H17.9873V17.0795ZM17.7245 17.3429L17.0166 16.6366L16.4754 17.179L16.8583 17.8427L17.7245 17.3429ZM18.1875 18.1454L17.3213 18.6451L17.6608 19.2336L18.3329 19.1348L18.1875 18.1454ZM18.4877 18.1013L19.1956 17.395L18.8402 17.0387L18.3422 17.1119L18.4877 18.1013ZM20.3203 19.9383L21.0138 20.6588L21.7473 19.9527L21.0283 19.232L20.3203 19.9383ZM20.164 20.0887L19.4705 19.3682L19.4632 19.3753L19.4561 19.3824L20.164 20.0887ZM20.164 20.3708L20.8728 19.6653L20.8719 19.6645L20.164 20.3708ZM20.2453 20.4524L19.5365 21.1579L19.5374 21.1587L20.2453 20.4524ZM20.5079 20.4524L21.2155 19.7458L20.3993 18.9285L19.7072 19.8533L20.5079 20.4524ZM20.7457 20.6906L21.7321 20.8546L21.8164 20.3476L21.4533 19.984L20.7457 20.6906ZM20.8457 21.0543L20.1378 21.7606L20.1399 21.7626L20.8457 21.0543ZM21.9278 22.1326L22.6357 21.4263L22.6337 21.4242L21.9278 22.1326ZM22.7284 22.1326L22.0493 21.3985L22.0346 21.4121L22.0205 21.4263L22.7284 22.1326ZM22.766 21.3113L22.056 22.0155L22.0581 22.0176L22.766 21.3113ZM21.6902 20.2265L22.4002 19.5223L22.3981 19.5202L21.6902 20.2265ZM21.3273 20.1262L20.6559 20.8673L21.0894 21.2601L21.6442 21.0747L21.3273 20.1262ZM21.0645 19.8881L20.2639 19.289L19.7184 20.0179L20.3931 20.6292L21.0645 19.8881ZM21.0645 19.6247L21.7736 18.9196L21.7715 18.9175L21.0645 19.6247ZM20.9894 19.5497L20.2669 20.241L20.2746 20.249L20.2825 20.2569L20.9894 19.5497ZM20.708 19.5497L21.4159 20.256L21.4233 20.2486L21.4306 20.241L20.708 19.5497ZM20.5767 19.6813L19.8688 20.3876L20.5767 21.0971L21.2846 20.3876L20.5767 19.6813ZM18.7441 17.8445L17.7544 17.701L17.6826 18.1964L18.0362 18.5508L18.7441 17.8445ZM18.7877 17.5436L19.7774 17.6871L19.8744 17.0176L19.2892 16.6784L18.7877 17.5436ZM17.9871 17.0795V16.0795H14.2674L17.4857 17.9447L17.9871 17.0795ZM21.8904 17.0858L21.9753 16.0894L21.9734 16.0892L21.8904 17.0858ZM20.7268 17.5434L20.0454 16.8115L20.0319 16.824L20.0189 16.8371L20.7268 17.5434ZM20.7142 18.6218L21.4223 19.328L21.9846 18.7641L21.561 18.0899L20.7142 18.6218ZM20.2891 19.0481L19.581 18.342L18.9168 19.0081L19.541 19.7118L20.2891 19.0481ZM20.5893 19.3866L19.8413 20.0502L20.5011 20.794L21.2487 20.1384L20.5893 19.3866ZM21.1458 19.3866L21.8528 18.6794L21.8297 18.6563L21.8051 18.6347L21.1458 19.3866ZM21.2272 19.468L21.9351 18.7617L21.9343 18.7609L21.2272 19.468ZM21.246 19.4869L20.5381 20.1932L21.246 20.9027L21.954 20.1932L21.246 19.4869ZM21.4212 19.3114L21.9289 18.4498L21.2609 18.0562L20.7133 18.605L21.4212 19.3114ZM22.447 19.2674L21.7657 18.5354L21.7522 18.548L21.7391 18.5611L22.447 19.2674ZM22.8909 17.9823L23.8295 17.6373L23.2793 16.1403L22.1715 17.2877L22.8909 17.9823ZM22.3281 18.5653L23.036 19.2716L23.0418 19.2658L23.0475 19.2598L22.3281 18.5653ZM22.0467 18.5653L22.7546 17.859L22.7545 17.8589L22.0467 18.5653ZM21.4648 17.9823L22.1726 17.2759L22.1653 17.2685L22.1578 17.2613L21.4648 17.9823ZM21.4648 17.7002L22.1578 18.4212L22.1652 18.4141L22.1725 18.4068L21.4648 17.7002ZM22.0469 17.1173L22.7545 17.8238L23.8748 16.7017L22.3796 16.1742L22.0469 17.1173ZM19.6886 19.5872L20.3964 20.2936L22.0994 18.5872H19.6886V19.5872ZM18.9629 20.3144L18.7455 21.2905L19.2822 21.41L19.6707 21.0208L18.9629 20.3144ZM18.7253 20.2893V21.2894L18.7341 21.2893L18.7253 20.2893ZM19.6822 20.9977L18.9743 20.2914L18.5541 20.7125L18.7237 21.2827L19.6822 20.9977ZM20.1076 20.5714L20.8155 21.2777L21.4339 20.6578L20.9011 19.9629L20.1076 20.5714ZM20.0451 20.4899L20.8387 19.8815L20.799 19.8298L20.753 19.7836L20.0451 20.4899ZM20.0263 19.9256L20.78 20.5828L21.3933 19.8795L20.734 19.2191L20.0263 19.9256ZM19.6884 19.5872V18.5872H17.2771L18.9807 20.2937L19.6884 19.5872ZM21.3085 20.5277L20.5971 21.2304L20.6006 21.234L21.3085 20.5277ZM22.4908 21.7125L23.1987 21.0062L23.1987 21.0061L22.4908 21.7125ZM22.3467 21.8565L21.6387 22.5628L21.6388 22.5628L22.3467 21.8565ZM21.1648 20.6717L21.8728 19.9655L21.8727 19.9654L21.1648 20.6717ZM21.1648 20.5277L20.4569 19.8214L21.1648 20.5277ZM18.863 20.7718L19.5711 20.0657L19.1637 19.6571L18.6061 19.8054L18.863 20.7718ZM19.2445 21.1544L20.2112 21.4103L20.3582 20.855L19.9526 20.4483L19.2445 21.1544ZM19.1068 21.6746L19.3638 22.641L19.9249 22.4918L20.0735 21.9305L19.1068 21.6746ZM18.5878 21.8126L17.8799 22.5189L18.2873 22.9272L18.8448 22.779L18.5878 21.8126ZM18.2061 21.43L17.2394 21.1741L17.0923 21.7296L17.4982 22.1363L18.2061 21.43ZM18.3438 20.9098L18.0869 19.9434L17.5257 20.0926L17.3771 20.6539L18.3438 20.9098ZM17.2794 16.3732L17.0166 16.6366L18.4324 18.0493L18.6952 17.7858L17.2794 16.3732ZM16.8583 17.8427L17.3213 18.6451L19.0536 17.6457L18.5907 16.8432L16.8583 17.8427ZM18.3329 19.1348L18.6331 19.0906L18.3422 17.1119L18.042 17.156L18.3329 19.1348ZM17.7797 18.8075L19.6124 20.6445L21.0283 19.232L19.1956 17.395L17.7797 18.8075ZM19.6269 19.2178L19.4705 19.3682L20.8575 20.8092L21.0138 20.6588L19.6269 19.2178ZM19.4561 19.3824C18.9866 19.853 18.9866 20.6065 19.4561 21.0771L20.8719 19.6645C21.1813 19.9746 21.1813 20.4849 20.8719 20.795L19.4561 19.3824ZM19.4552 21.0762L19.5365 21.1579L20.954 19.747L20.8728 19.6653L19.4552 21.0762ZM19.5374 21.1587C19.9428 21.5651 20.7995 21.7318 21.3085 21.0516L19.7072 19.8533C20.0962 19.3335 20.7079 19.5003 20.9532 19.7461L19.5374 21.1587ZM19.8003 21.159L20.038 21.3972L21.4533 19.984L21.2155 19.7458L19.8003 21.159ZM19.7592 20.5265C19.7066 20.8426 19.7346 21.3565 20.1378 21.7606L21.5536 20.348C21.7567 20.5514 21.7446 20.7793 21.7321 20.8546L19.7592 20.5265ZM20.1399 21.7626L21.2219 22.8409L22.6337 21.4242L21.5516 20.3459L20.1399 21.7626ZM21.2199 22.8389C21.8308 23.4511 22.8254 23.4511 23.4363 22.8389L22.0205 21.4263C22.191 21.2553 22.4652 21.2553 22.6357 21.4263L21.2199 22.8389ZM23.4075 22.8666C24.0701 22.2536 24.1079 21.2404 23.474 20.6049L22.0581 22.0176C21.9735 21.9327 21.924 21.8114 21.9278 21.6846C21.9317 21.554 21.9899 21.4535 22.0493 21.3985L23.4075 22.8666ZM23.476 20.6071L22.4002 19.5223L20.9802 20.9307L22.056 22.0155L23.476 20.6071ZM22.3981 19.5202C22.0744 19.1958 21.5464 18.9987 21.0104 19.1778L21.6442 21.0747C21.3484 21.1735 21.1058 21.0566 20.9823 20.9328L22.3981 19.5202ZM21.9988 19.3852L21.736 19.1471L20.3931 20.6292L20.6559 20.8673L21.9988 19.3852ZM21.8652 20.4872C22.0369 20.2577 22.1095 19.9917 22.1095 19.749C22.1095 19.5159 22.0393 19.1868 21.7736 18.9196L20.3554 20.3298C20.1497 20.123 20.1095 19.8855 20.1095 19.749C20.1095 19.6027 20.1522 19.4382 20.2639 19.289L21.8652 20.4872ZM21.7715 18.9175L21.6964 18.8424L20.2825 20.2569L20.3575 20.332L21.7715 18.9175ZM21.712 18.8584C21.6006 18.7419 21.4667 18.6491 21.3183 18.5857L20.5321 20.4247C20.4321 20.3819 20.3419 20.3194 20.2669 20.241L21.712 18.8584ZM21.3183 18.5857C21.1699 18.5223 21.0102 18.4895 20.8487 18.4895V20.4895C20.7399 20.4895 20.6321 20.4674 20.5321 20.4247L21.3183 18.5857ZM20.8487 18.4895C20.6873 18.4895 20.5275 18.5223 20.3792 18.5857L21.1653 20.4247C21.0653 20.4674 20.9576 20.4895 20.8487 20.4895V18.4895ZM20.3792 18.5857C20.2308 18.6491 20.0969 18.7419 19.9855 18.8584L21.4306 20.241C21.3556 20.3194 21.2654 20.3819 21.1653 20.4247L20.3792 18.5857ZM20.0001 18.8434L19.8688 18.975L21.2846 20.3876L21.4159 20.256L20.0001 18.8434ZM21.2846 18.975L19.452 17.1382L18.0362 18.5508L19.8688 20.3876L21.2846 18.975ZM19.7337 17.988L19.7774 17.6871L17.7981 17.4001L17.7544 17.701L19.7337 17.988ZM19.2892 16.6784L18.4885 16.2143L17.4857 17.9447L18.2863 18.4088L19.2892 16.6784ZM17.9871 18.0795H17.9873V16.0795H17.9871V18.0795ZM21.9734 16.0892C21.5481 16.0538 21.1456 16.175 20.8599 16.2969C20.565 16.4228 20.2688 16.6035 20.0454 16.8115L21.4083 18.2753C21.4134 18.2705 21.4388 18.2489 21.4871 18.2186C21.5333 18.1897 21.588 18.1607 21.6449 18.1364C21.7025 18.1119 21.7519 18.0965 21.7885 18.0886C21.8275 18.0801 21.8319 18.0844 21.8073 18.0823L21.9734 16.0892ZM20.0189 16.8371C19.6742 17.1825 19.5066 17.6214 19.518 18.0777C19.5284 18.4996 19.6885 18.869 19.8675 19.1538L21.561 18.0899C21.5335 18.046 21.5208 18.0166 21.5159 18.0027C21.5111 17.989 21.5166 17.9986 21.5173 18.028C21.5181 18.0602 21.5128 18.106 21.4931 18.1556C21.4733 18.2054 21.4478 18.2365 21.4348 18.2497L20.0189 16.8371ZM20.0062 17.9157L19.581 18.342L20.9972 19.7543L21.4223 19.328L20.0062 17.9157ZM19.541 19.7118L19.8413 20.0502L21.3374 18.7229L21.0372 18.3845L19.541 19.7118ZM21.2487 20.1384C21.0315 20.3289 20.7036 20.3289 20.4864 20.1384L21.8051 18.6347C21.2677 18.1634 20.4674 18.1634 19.93 18.6347L21.2487 20.1384ZM20.4387 20.0938L20.5202 20.1752L21.9343 18.7609L21.8528 18.6794L20.4387 20.0938ZM20.5193 20.1743L20.5381 20.1932L21.954 18.7806L21.9351 18.7617L20.5193 20.1743ZM21.954 20.1932L22.1291 20.0177L20.7133 18.605L20.5381 18.7806L21.954 20.1932ZM20.9135 20.1729C21.1977 20.3404 21.5612 20.4811 21.9715 20.4773C22.4102 20.4731 22.8267 20.3027 23.1549 19.9737L21.7391 18.5611C21.7524 18.5478 21.7819 18.5237 21.8282 18.5041C21.8745 18.4846 21.9188 18.4777 21.9526 18.4774C22.0123 18.4768 22.0065 18.4956 21.9289 18.4498L20.9135 20.1729ZM23.1283 19.9994C23.4049 19.742 23.6252 19.3763 23.7589 19.0316C23.8807 18.7176 24.027 18.1743 23.8295 17.6373L21.9523 18.3273C21.9176 18.2328 21.9283 18.1777 21.9263 18.1964C21.9247 18.2099 21.9173 18.2489 21.8942 18.3084C21.8719 18.366 21.8423 18.4237 21.8114 18.4721C21.7781 18.5242 21.7584 18.5422 21.7657 18.5354L23.1283 19.9994ZM22.1715 17.2877L21.6087 17.8707L23.0475 19.2598L23.6104 18.6769L22.1715 17.2877ZM21.6202 17.859C21.9308 17.5476 22.4439 17.5476 22.7546 17.859L21.3388 19.2716C21.8095 19.7434 22.5652 19.7434 23.036 19.2716L21.6202 17.859ZM22.7545 17.8589L22.1726 17.2759L20.757 18.6887L21.3389 19.2717L22.7545 17.8589ZM22.1578 17.2613C22.236 17.3365 22.2982 17.4267 22.3406 17.5263L20.5003 18.3095C20.5633 18.4576 20.6557 18.5916 20.7719 18.7033L22.1578 17.2613ZM22.3406 17.5263C22.383 17.626 22.4048 17.7331 22.4048 17.8413H20.4048C20.4048 18.0021 20.4373 18.1614 20.5003 18.3095L22.3406 17.5263ZM22.4048 17.8413C22.4048 17.9494 22.383 18.0566 22.3406 18.1562L20.5003 17.373C20.4373 17.5211 20.4048 17.6804 20.4048 17.8413H22.4048ZM22.3406 18.1562C22.2982 18.2558 22.236 18.346 22.1578 18.4212L20.7719 16.9793C20.6557 17.0909 20.5633 17.2249 20.5003 17.373L22.3406 18.1562ZM22.1725 18.4068L22.7545 17.8238L21.3392 16.4107L20.7572 16.9937L22.1725 18.4068ZM22.3796 16.1742C22.2279 16.1207 22.0899 16.0991 21.9753 16.0894L21.8054 18.0821C21.806 18.0822 21.7957 18.0814 21.7785 18.078C21.7604 18.0744 21.7383 18.0688 21.7142 18.0603L22.3796 16.1742ZM18.9808 18.8808L18.255 19.608L19.6707 21.0208L20.3964 20.2936L18.9808 18.8808ZM19.1802 19.3383C19.028 19.3044 18.8724 19.288 18.7165 19.2894L18.7341 21.2893C18.7379 21.2893 18.7417 21.2897 18.7455 21.2905L19.1802 19.3383ZM18.7253 19.2893C17.6104 19.2893 16.7245 20.1805 16.7245 21.2924H18.7245C18.7245 21.2877 18.7249 21.2849 18.7252 21.2837C18.7254 21.2825 18.7256 21.2822 18.7254 21.2826C18.7251 21.2834 18.7242 21.2849 18.7226 21.2865C18.721 21.2881 18.7192 21.2892 18.7178 21.2898C18.7172 21.2901 18.7171 21.29 18.7179 21.2899C18.7187 21.2897 18.721 21.2893 18.7253 21.2893V19.2893ZM16.7245 21.2924C16.7245 22.4043 17.6104 23.2955 18.7253 23.2955V21.2955C18.721 21.2955 18.7187 21.295 18.7179 21.2949C18.7171 21.2947 18.7172 21.2947 18.7178 21.295C18.7192 21.2955 18.721 21.2967 18.7226 21.2983C18.7242 21.2999 18.7251 21.3014 18.7254 21.3022C18.7256 21.3026 18.7254 21.3023 18.7252 21.3011C18.7249 21.2999 18.7245 21.2971 18.7245 21.2924H16.7245ZM18.7253 23.2955C19.8401 23.2955 20.7261 22.4043 20.7261 21.2924H18.7261C18.7261 21.2971 18.7256 21.2999 18.7254 21.3011C18.7251 21.3023 18.725 21.3026 18.7251 21.3022C18.7254 21.3014 18.7263 21.2999 18.7279 21.2983C18.7295 21.2967 18.7313 21.2955 18.7327 21.295C18.7334 21.2947 18.7334 21.2947 18.7326 21.2949C18.7319 21.295 18.7295 21.2955 18.7253 21.2955V23.2955ZM20.7261 21.2924C20.7261 21.0839 20.6932 20.889 20.6407 20.7127L18.7237 21.2827C18.7265 21.2922 18.7261 21.295 18.7261 21.2924H20.7261ZM20.3901 21.704L20.8155 21.2777L19.3996 19.8651L18.9743 20.2914L20.3901 21.704ZM20.9011 19.9629L20.8387 19.8815L19.2515 21.0984L19.314 21.1799L20.9011 19.9629ZM20.753 19.7836C20.979 20.0102 20.971 20.3638 20.78 20.5828L19.2726 19.2684C18.8014 19.8088 18.7909 20.6488 19.3372 21.1963L20.753 19.7836ZM20.734 19.2191L20.3961 18.8807L18.9807 20.2937L19.3186 20.6321L20.734 19.2191ZM19.6884 20.5872H19.6886V18.5872H19.6884V20.5872ZM21.2398 21.5026C21.1925 21.5026 21.091 21.4988 20.9679 21.4589C20.8341 21.4155 20.7048 21.3395 20.5971 21.2304L22.0199 19.8249C21.7366 19.5381 21.4014 19.5026 21.2398 19.5026V21.5026ZM20.6006 21.234L21.783 22.4188L23.1987 21.0061L22.0163 19.8213L20.6006 21.234ZM21.7829 22.4188C21.4335 22.0686 21.4335 21.5004 21.7829 21.1502L23.1987 22.5628C23.6282 22.1324 23.6282 21.4366 23.1987 21.0062L21.7829 22.4188ZM21.7829 21.1502C22.1336 20.7987 22.7039 20.7987 23.0546 21.1502L21.6388 22.5628C22.0695 22.9945 22.768 22.9945 23.1987 22.5628L21.7829 21.1502ZM23.0547 21.1503L21.8728 19.9655L20.4568 21.3779L21.6387 22.5628L23.0547 21.1503ZM21.8727 19.9654C22.2221 20.3156 22.2221 20.8837 21.8727 21.234L20.4569 19.8214C20.0274 20.2518 20.0274 20.9475 20.4569 21.378L21.8727 19.9654ZM21.8727 21.234C21.733 21.374 21.5806 21.4389 21.4757 21.469C21.373 21.4984 21.2884 21.5026 21.2398 21.5026V19.5026C21.1367 19.5026 20.7648 19.5127 20.4569 19.8214L21.8727 21.234ZM18.1549 21.4779L18.5364 21.8605L19.9526 20.4483L19.5711 20.0657L18.1549 21.4779ZM18.2778 20.8985L18.1401 21.4186L20.0735 21.9305L20.2112 21.4103L18.2778 20.8985ZM18.8498 20.7081L18.3308 20.8462L18.8448 22.779L19.3638 22.641L18.8498 20.7081ZM19.2957 21.1063L18.914 20.7237L17.4982 22.1363L17.8799 22.5189L19.2957 21.1063ZM19.1728 21.6859L19.3105 21.1657L17.3771 20.6539L17.2394 21.1741L19.1728 21.6859ZM18.6007 21.8763L19.1199 21.7382L18.6061 19.8054L18.0869 19.9434L18.6007 21.8763Z" fill="#D0C9C0" mask="url(#path-4-outside-1_964_7400)"/>
</g>
<defs>
<clipPath id="clip0_964_7400">
<rect width="7.5" height="6.75" fill="white" transform="translate(16.5 16.3125)"/>
</clipPath>
</defs>
</svg>
